<?xml version="1.0" encoding="iso-8859-1"?>
<!-- Generator: Adobe Illustrator 19.0.0, SVG Export Plug-In . SVG Version: 6.00 Build 0)  -->
<svg xmlns="http://www.w3.org/2000/svg" xmlns:xlink="http://www.w3.org/1999/xlink" version="1.1" id="Capa_1" x="0px" y="0px" viewBox="0 0 480 480" style="enable-background:new 0 0 480 480;" xml:space="preserve" width="512px" height="512px">
<g>
	<g>
		<path d="M432.157,219.456L431.997,80c0-6.72-4.224-12.736-10.528-15.04l-176-64c-3.52-1.28-7.392-1.28-10.944,0l-176,64    C52.189,67.264,47.997,73.28,47.997,80l-0.16,139.456c-1.056,114.208-1.856,196.704,187.104,259.712    c1.632,0.544,3.36,0.832,5.056,0.832s3.424-0.288,5.056-0.8C433.981,416.192,433.245,333.696,432.157,219.456z M239.997,96    c35.296,0,64,28.704,64,64c0,35.296-28.704,64-64,64s-64-28.704-64-64S204.701,96,239.997,96z M319.997,352h-160    c-8.832,0-16-7.168-16-16c0-44.128,35.904-80,80-80h32c44.128,0,80,35.872,80,80C335.997,344.832,328.829,352,319.997,352z" fill="#064371"/>
	</g>
</g>
<g>
</g>
<g>
</g>
<g>
</g>
<g>
</g>
<g>
</g>
<g>
</g>
<g>
</g>
<g>
</g>
<g>
</g>
<g>
</g>
<g>
</g>
<g>
</g>
<g>
</g>
<g>
</g>
<g>
</g>
</svg>
