<svg width="256" height="256" viewBox="0 0 256 256" version="1.1" xmlns="http://www.w3.org/2000/svg" xmlns:xlink="http://www.w3.org/1999/xlink">
<title>Frame 2</title>
<desc>Created using Figma</desc>
<g id="Canvas" transform="translate(-185 235)">
<clipPath id="clip-0" clip-rule="evenodd">
<path d="M 185 -235L 441 -235L 441 21L 185 21L 185 -235Z" fill="#FFFFFF"/>
</clipPath>
<g id="Frame 2" clip-path="url(#clip-0)">
<path d="M 185 -235L 441 -235L 441 21L 185 21L 185 -235Z" fill="#FFFFFF"/>
<g id="binance">
<g id="Vector">
<use xlink:href="#path0_fill" transform="translate(273.678 -202)" fill="#F3BA2F"/>
</g>
<g id="Vector">
<use xlink:href="#path1_fill" transform="matrix(0.704338 0.709851 -0.704338 0.709851 263.464 -152.079)" fill="#F3BA2F"/>
</g>
<g id="Vector">
<use xlink:href="#path2_fill" transform="translate(273.657 -127.219)" fill="#F3BA2F"/>
</g>
<g id="Vector">
<use xlink:href="#path3_fill" transform="matrix(-0.704338 0.709851 -0.704338 -0.709851 377 -137.495)" fill="#F3BA2F"/>
</g>
<g id="Vector">
<use xlink:href="#path4_fill" transform="translate(298.315 -152.3)" fill="#F3BA2F"/>
</g>
<g id="Vector">
<use xlink:href="#path5_fill" transform="translate(203 -53.2274)" fill="#F3BA2F"/>
</g>
<g id="Vector">
<use xlink:href="#path6_fill" transform="translate(237.311 -53.2274)" fill="#F3BA2F"/>
</g>
<g id="Vector">
<use xlink:href="#path7_fill" transform="translate(254.191 -53.2274)" fill="#F3BA2F"/>
</g>
<g id="Vector">
<use xlink:href="#path8_fill" transform="translate(288.546 -53.4465)" fill="#F3BA2F"/>
</g>
<g id="Vector">
<use xlink:href="#path9_fill" transform="translate(328.135 -53.2274)" fill="#F3BA2F"/>
</g>
<g id="Vector">
<use xlink:href="#path10_fill" transform="translate(363.755 -53.7538)" fill="#F3BA2F"/>
</g>
<g id="Vector">
<use xlink:href="#path11_fill" transform="translate(399.811 -53.2274)" fill="#F3BA2F"/>
</g>
</g>
</g>
</g>
<defs>
<path id="path0_fill" d="M 14.4637 54.2069L 39.3211 29.1559L 64.1917 54.2201L 78.6554 39.6432L 39.3211 0L 3.23945e-07 39.6299L 14.4637 54.2069Z"/>
<path id="path1_fill" d="M 20.5349 0L 0 0L 0 20.5359L 20.5349 20.5359L 20.5349 0Z"/>
<path id="path2_fill" d="M 14.485 0.0122235L 39.3424 25.0632L 64.2119 3.7934e-06L 78.6837 14.5688L 78.6766 14.577L 39.3424 54.2191L 0.02022 14.5902L 4.16501e-07 14.5698L 14.485 0.0122235Z"/>
<path id="path3_fill" d="M 20.5359 0L 0 0L 0 20.5349L 20.5359 20.5349L 20.5359 0Z"/>
<path id="path4_fill" d="M 29.3551 14.7919L 29.3612 14.7919L 14.6841 -1.24374e-06L 3.83759 10.9314L 3.83658 10.9314L 2.59108 12.1877L 0.0202208 14.7787L 1.17237e-06 14.7991L 0.0202208 14.8205L 14.6841 29.5992L 29.3612 14.8072L 29.3683 14.7991L 29.3551 14.7919Z"/>
<path id="path5_fill" d="M -2.21888e-06 3.90734e-07L 14.1404 3.90734e-07C 17.6499 3.90734e-07 20.3038 0.906309 22.1024 2.71893C 23.4943 4.12275 24.1901 5.86266 24.1901 7.93821L 24.1901 8.026C 24.1901 8.90305 24.0824 9.67812 23.8656 10.3503C 23.6493 11.0234 23.3603 11.6293 22.999 12.1702C 22.6386 12.7116 22.2197 13.1868 21.7434 13.5956C 21.2667 14.0053 20.7546 14.3565 20.2061 14.6482C 21.9702 15.3213 23.3589 16.2345 24.3714 17.3895C 25.3834 18.545 25.8901 20.1459 25.8901 22.1922L 25.8901 22.2796C 25.8901 23.6834 25.622 24.9112 25.0853 25.9642C 24.5486 27.0164 23.7797 27.8939 22.7786 28.5958C 21.7775 29.2977 20.5737 29.8236 19.1668 30.1748C 17.7599 30.5255 16.2008 30.7007 14.4899 30.7007L -2.21888e-06 30.7007L -2.21888e-06 3.90734e-07ZM 12.7267 12.4117C 14.209 12.4117 15.386 12.1565 16.2571 11.6444C 17.1287 11.1327 17.5645 10.3064 17.5645 9.16643L 17.5645 9.07864C 17.5645 8.05573 17.1864 7.27379 16.4312 6.73239C 15.6755 6.19144 14.5857 5.92073 13.1625 5.92073L 6.53738 5.92073L 6.53738 12.4117L 12.7267 12.4117L 12.7267 12.4117ZM 14.5139 24.7804C 15.9958 24.7804 17.1573 24.5106 18.0008 23.9692C 18.8433 23.4282 19.265 22.5873 19.265 21.4469L 19.265 21.3595C 19.265 20.3362 18.8723 19.525 18.088 18.925C 17.3032 18.3265 16.0394 18.0265 14.2958 18.0265L 6.53738 18.0265L 6.53738 24.7808L 14.5139 24.7808L 14.5139 24.7804Z"/>
<path id="path6_fill" d="M 0 3.90734e-07L 6.7128 3.90734e-07L 6.7128 30.7016L 0 30.7016L 0 3.90734e-07Z"/>
<path id="path7_fill" d="M -4.99248e-06 3.90734e-07L 6.18839 3.90734e-07L 20.4851 18.9035L 20.4851 3.90734e-07L 27.1102 3.90734e-07L 27.1102 30.7016L 21.4008 30.7016L 6.62463 11.1844L 6.62463 30.7016L -4.99248e-06 30.7016L -4.99248e-06 3.90734e-07Z"/>
<path id="path8_fill" d="M 13.077 3.48869e-07L 19.2659 3.48869e-07L 32.3425 30.9206L 25.3248 30.9206L 22.535 24.035L 9.6334 24.035L 6.84413 30.9206L 9.98496e-07 30.9206L 13.077 3.48869e-07ZM 20.1379 18.0695L 16.084 8.1138L 12.0314 18.0695L 20.1379 18.0695Z"/>
<path id="path9_fill" d="M 2.99549e-06 3.90734e-07L 6.18975 3.90734e-07L 20.4856 18.9035L 20.4856 3.90734e-07L 27.1107 3.90734e-07L 27.1107 30.7016L 21.4012 30.7016L 6.62508 11.1844L 6.62508 30.7016L 2.99549e-06 30.7016L 2.99549e-06 3.90734e-07L 2.99549e-06 3.90734e-07Z"/>
<path id="path10_fill" d="M 15.6477 31.7537C 13.4092 31.7537 11.3325 31.344 9.41437 30.526C 7.49624 29.7079 5.8403 28.589 4.44566 27.1705C 3.05057 25.7525 1.9604 24.0785 1.17697 22.1488C 0.392176 20.2186 -6.43475e-06 18.1573 -6.43475e-06 15.9642L -6.43475e-06 15.8769C -6.43475e-06 13.6838 0.392176 11.6302 1.17697 9.7147C 1.96086 7.79965 3.05057 6.11827 4.44566 4.67101C 5.83984 3.22375 7.51122 2.08287 9.45753 1.24972C 11.4038 0.416574 13.5556 -5.58191e-08 15.909 -5.58191e-08C 17.3318 -5.58191e-08 18.6319 0.117518 19.8089 0.350726C 20.9859 0.585306 22.0533 0.906309 23.0131 1.31557C 23.9724 1.72528 24.8576 2.22233 25.6724 2.80672C 26.4845 3.39203 27.2406 4.03495 27.9382 4.73686L 23.6675 9.69275C 22.4746 8.61131 21.2622 7.76262 20.0275 7.14896C 18.7919 6.5353 17.405 6.22802 15.8649 6.22802C 14.5862 6.22802 13.402 6.47677 12.3131 6.97382C 11.2234 7.47088 10.286 8.1577 9.50116 9.03474C 8.71727 9.91178 8.10698 10.9283 7.67028 12.0829C 7.23539 13.2384 7.0177 14.4735 7.0177 15.7891L 7.0177 15.8764C 7.0177 17.192 7.23539 18.4353 7.67028 19.6041C 8.10698 20.7742 8.70864 21.7971 9.4798 22.6742C 10.2491 23.5512 11.1793 24.2463 12.2686 24.758C 13.3592 25.2701 14.5576 25.5253 15.8649 25.5253C 17.609 25.5253 19.0823 25.2038 20.2883 24.5604C 21.4944 23.918 22.6936 23.0405 23.8847 21.9288L 28.1563 26.2711C 27.3715 27.1193 26.5567 27.8798 25.7155 28.5515C 24.8726 29.2246 23.9501 29.8017 22.9472 30.2845C 21.9452 30.7665 20.8473 31.1328 19.6571 31.3806C 18.4647 31.6289 17.1287 31.7537 15.6477 31.7537Z"/>
<path id="path11_fill" d="M -9.09741e-06 3.90734e-07L 22.9699 3.90734e-07L 22.9699 6.00899L 6.62554 6.00899L 6.62554 12.237L 21.009 12.237L 21.009 18.2455L 6.62554 18.2455L 6.62554 24.693L 23.1889 24.693L 23.1889 30.7016L -9.09741e-06 30.7016L -9.09741e-06 3.90734e-07Z"/>
</defs>
</svg>
