<?xml version="1.0" encoding="utf-8"?>
<!-- Svg Vector Icons : http://www.onlinewebfonts.com/icon -->
<!DOCTYPE svg PUBLIC "-//W3C//DTD SVG 1.1//EN" "http://www.w3.org/Graphics/SVG/1.1/DTD/svg11.dtd">
<svg version="1.1" xmlns="http://www.w3.org/2000/svg" xmlns:xlink="http://www.w3.org/1999/xlink" x="0px" y="0px" viewBox="0 0 1000 1000" enable-background="new 0 0 1000 1000" xml:space="preserve">
<metadata> Svg Vector Icons : http://www.onlinewebfonts.com/icon </metadata>
<g><g><path d="M500,10C229.4,10,10,229.4,10,500c0,270.6,219.4,490,490,490c270.6,0,490-219.4,490-490C990,229.4,770.6,10,500,10z M500,909.5C273.8,909.5,90.5,726.2,90.5,500C90.5,273.8,273.8,90.5,500,90.5c226.2,0,409.5,183.3,409.5,409.5C909.5,726.2,726.2,909.5,500,909.5z M684.9,487.3c15.7-22.2,25.1-49.9,25.1-80c0-72.5-54.1-131.3-120.7-131.3c-5.3,0-11.8,0-19.2,0V174.5c0-5.8-4.7-10.5-10.5-10.5h-35c-5.8,0-10.5,4.7-10.5,10.5V276h-56V174.5c0-5.8-4.7-10.5-10.5-10.5h-35c-5.8,0-10.5,4.7-10.5,10.5V276H286.5c-5.8,0-10.5,4.7-10.5,10.5v35.3c0,5.4,4,10.1,9.4,10.6C324.9,336,346,362.5,346,395v217c0,29.2-15.1,52.5-48.1,55.6c-4.7,0.5-8.6,3.8-9.4,8.4l-6.7,35.7c-1.2,6.4,3.7,12.3,10.2,12.3h110v101.5c0,5.8,4.7,10.5,10.5,10.5h35c5.8,0,10.5-4.7,10.5-10.5V724h56v101.5c0,5.8,4.7,10.5,10.5,10.5h35c5.8,0,10.5-4.7,10.5-10.5V724c19.8,0,36.3,0,47.2,0c66.7,0,120.7-58,120.7-129.5C738,549.9,717,510.5,684.9,487.3z M458,360c0,0,53.8,0,85.7,0c31.9,0,57.7,25.9,57.7,57.8c0,31.9-25.8,57.8-57.7,57.8c-31.9,0-85.7,0-85.7,0V360z M571.7,643.5c-31.9,0-113.7,0-113.7,0V528c0,0,81.8,0,113.7,0c31.9,0,57.8,25.8,57.8,57.8C629.5,617.6,603.6,643.5,571.7,643.5z"/></g><g></g><g></g><g></g><g></g><g></g><g></g><g></g><g></g><g></g><g></g><g></g><g></g><g></g><g></g><g></g></g>
</svg>