<svg width="198" height="205" viewBox="0 0 198 205" version="1.1" xmlns="http://www.w3.org/2000/svg" xmlns:xlink="http://www.w3.org/1999/xlink">
<title>&#231;&#153;&#187;&#229;&#189;&#149;&#230;&#179;&#168;&#229;&#134;&#140;</title>
<desc>Created using Figma</desc>
<g id="Canvas" transform="translate(127 217)">
<g id="&#231;&#153;&#187;&#229;&#189;&#149;&#230;&#179;&#168;&#229;&#134;&#140;">
<g id="&#233;&#130;&#174;&#231;&#174;&#177;&#230;&#179;&#168;&#229;&#134;&#140;">
<g id="&#229;&#175;&#188;&#232;&#136;&#170;">
<g id="Group 20">
<g id="Group">
<g id="logo">
<g id="Group">
<g id="Shape">
<use xlink:href="#path0_fill" transform="translate(-74 -217)" fill="#FF7516"/>
</g>
<g id="Shape">
<use xlink:href="#path1_fill" transform="translate(-43.7774 -159.355)" fill="#FF7516"/>
</g>
</g>
<g id="Group">
<g id="Shape">
<use xlink:href="#path2_fill" transform="translate(-126.555 -66.4083)" fill="#464B6D"/>
</g>
<g id="Shape">
<use xlink:href="#path3_fill" transform="translate(-127 -67.1318)" fill="#464B6D"/>
</g>
<g id="Shape">
<use xlink:href="#path4_fill" transform="translate(-72.8032 -51.0698)" fill="#464B6D"/>
</g>
<g id="Shape">
<use xlink:href="#path5_fill" transform="translate(-73.0727 -51.5039)" fill="#464B6D"/>
</g>
<g id="Shape">
<use xlink:href="#path6_fill" transform="translate(-32.8773 -52.0827)" fill="#464B6D"/>
</g>
<g id="Shape">
<use xlink:href="#path7_fill" transform="translate(-33.3147 -52.6615)" fill="#464B6D"/>
</g>
<g id="Shape">
<use xlink:href="#path8_fill" transform="translate(11.036 -67.4212)" fill="#464B6D"/>
</g>
<g id="Shape">
<use xlink:href="#path9_fill" transform="translate(10.7391 -68)" fill="#464B6D"/>
</g>
<g id="Shape">
<use xlink:href="#path10_fill" transform="translate(56.6027 -50.9251)" fill="#464B6D"/>
</g>
<g id="Shape">
<use xlink:href="#path11_fill" transform="translate(56.3058 -51.3592)" fill="#464B6D"/>
</g>
<g id="Shape">
<use xlink:href="#path12_fill" transform="translate(60.4618 -63.9483)" fill="#464B6D"/>
</g>
<g id="Shape">
<use xlink:href="#path13_fill" transform="translate(60.1649 -64.3824)" fill="#464B6D"/>
</g>
</g>
</g>
</g>
</g>
</g>
</g>
</g>
</g>
<defs>
<path id="path0_fill" d="M 40.5182 1.10313C 40.5182 1.74932 42.1788 13.3809 37.5292 27.2741C 36.5328 30.8282 34.8723 34.3823 32.8796 38.2594C 30.2226 43.1059 26.9015 47.9524 22.9161 52.1527C 20.9234 54.4144 17.9343 56.676 15.9416 58.6146C 0.996351 71.8617 1.20594e-08 86.4011 1.20594e-08 92.54C 1.20594e-08 99.325 1.9927 114.511 16.6058 126.465C 16.938 126.788 17.6022 126.465 17.6022 126.142C 18.2664 122.265 21.9197 107.726 32.5474 91.8938C 35.5365 87.0473 39.5219 82.5239 43.8394 78.0005C 48.1569 73.4772 52.8066 69.9231 56.792 64.7535C 67.0876 52.7989 65.427 44.7214 63.4343 35.3516C 60.4453 20.8121 52.1423 11.4423 50.1496 8.85749L 46.1642 4.65721L 43.5073 2.07242L 41.5146 0.133832C 41.1825 -0.189267 40.5182 0.133832 40.5182 0.45693L 40.5182 1.10313Z"/>
<path id="path1_fill" d="M 4.74793e-07 75.9281C 9.29927 78.5129 19.2628 79.4822 28.562 76.5743C 38.5255 73.3433 49.4854 66.5583 55.7956 54.9267C 59.1168 48.4648 60.7774 41.3566 60.7774 34.5715C 60.7774 33.9253 60.7774 33.2791 60.7774 32.6329C 60.7774 31.9867 60.7774 31.3405 60.7774 30.6943C 60.7774 30.0482 60.7774 29.402 60.7774 28.7558C 60.7774 28.1096 60.7774 27.4634 60.4453 26.8172C 60.4453 26.171 60.4453 25.5248 60.1131 24.8786C 60.1131 24.2324 60.1131 23.5862 59.781 22.94C 59.781 22.2938 59.4489 21.6476 59.4489 21.3245C 59.4489 20.6783 59.1168 20.3552 59.1168 19.709C 59.1168 19.0628 58.7847 18.7397 58.7847 18.0935C 58.7847 17.4473 58.4526 17.1242 58.4526 16.478C 58.4526 15.8318 58.1204 15.5087 58.1204 14.8625C 58.1204 14.5394 57.7883 13.8932 57.7883 13.5701C 57.7883 13.247 57.4562 12.6008 57.4562 12.2777C 57.4562 11.9546 57.1241 11.3084 57.1241 10.9853C 57.1241 10.6622 56.792 10.016 56.792 9.69295C 56.792 9.36985 56.4599 9.04675 56.4599 8.40056C 56.4599 8.07746 56.1277 7.75436 56.1277 7.43126C 56.1277 7.10817 55.7956 6.78507 55.7956 6.46197C 55.7956 6.13887 55.4635 5.81577 55.4635 5.49267C 55.4635 5.16957 55.1314 4.84648 55.1314 4.52338C 55.1314 4.20028 54.7993 3.87718 54.7993 3.55408C 54.7993 3.23098 54.4672 2.90789 54.4672 2.90789C 54.4672 2.58479 54.135 2.58479 54.135 2.26169C 54.135 1.93859 53.8029 1.93859 53.8029 1.61549C 53.8029 1.29239 53.4708 1.29239 53.4708 0.969294C 53.4708 0.646196 53.1387 0.646198 53.1387 0.3231C 53.1387 0.3231 53.1387 2.44991e-06 52.8066 2.44991e-06L 52.4745 2.44991e-06C 52.1423 2.44991e-06 52.1423 0.3231 51.8102 0.3231C 51.146 1.93859 49.4854 5.81577 48.8212 7.43126C 43.1752 20.0321 34.208 29.402 24.2445 39.0949C 19.927 43.2952 15.6095 48.1417 12.2883 53.3112C 10.6277 55.896 9.63139 58.8039 8.63504 61.7118C 7.9708 64.2966 8.30292 66.8814 7.30657 69.4661C 6.97445 70.4354 6.64234 71.0816 5.9781 71.7278C 4.64963 73.0202 2.98905 73.6664 1.32847 73.6664"/>
<path id="path2_fill" d="M 37.4033 20.8372L 39.1844 0.868217C 39.1844 0.289406 39.6297 -3.27192e-08 40.2234 -3.27192e-08L 48.2384 -3.27192e-08C 48.8321 -3.27192e-08 49.1289 0.434108 49.1289 0.868217L 44.5277 51.9483C 44.5277 52.5271 44.0825 52.8165 43.4888 52.8165L 35.4738 52.8165C 34.8801 52.8165 34.5832 52.3824 34.5832 51.9483L 36.5127 30.5323C 36.5127 29.9535 36.2159 29.6641 35.6222 29.6641L 13.0615 29.6641C 12.4678 29.6641 12.0225 30.0982 12.0225 30.5323L 10.093 51.9483C 10.093 52.5271 9.64768 52.8165 9.05397 52.8165L 0.890555 52.8165C 0.296852 52.8165 -3.36809e-08 52.3824 -3.36809e-08 51.9483L 4.6012 0.868217C 4.6012 0.289406 5.04648 -3.27192e-08 5.64018 -3.27192e-08L 13.8036 -3.27192e-08C 14.3973 -3.27192e-08 14.6942 0.434108 14.6942 0.868217L 12.913 20.8372C 12.913 21.416 13.2099 21.7054 13.8036 21.7054L 36.3643 21.7054C 36.958 21.8501 37.4033 21.416 37.4033 20.8372Z"/>
<path id="path3_fill" d="M 43.934 53.9742L 35.919 53.9742C 35.6222 53.9742 35.1769 53.8295 35.0285 53.5401C 34.7316 53.2507 34.7316 52.9612 34.7316 52.5271L 36.6612 31.1111C 36.6612 30.9664 36.6612 30.8217 36.5127 30.677C 36.3643 30.5323 36.2159 30.5323 36.0675 30.5323L 13.5067 30.5323C 13.2099 30.5323 12.913 30.8217 12.7646 31.1111L 10.8351 52.5271C 10.8351 53.2506 10.093 53.8295 9.35082 53.8295L 1.18741 53.8295C 0.890555 53.8295 0.445277 53.6848 0.296852 53.3954C -2.20486e-08 53.1059 2.1056e-08 52.8165 2.1056e-08 52.3824L 4.6012 1.30233C 4.6012 0.578811 5.34333 -2.60209e-08 6.08546 -2.60209e-08L 14.2489 -2.60209e-08C 14.5457 -2.60209e-08 14.991 0.144703 15.1394 0.434108C 15.4363 0.723514 15.4363 1.01292 15.4363 1.44703L 13.6552 21.416C 13.6552 21.5607 13.6552 21.7054 13.8036 21.8501C 13.952 21.9948 14.1004 21.9948 14.2489 21.9948L 36.8096 21.9948C 37.1064 21.9948 37.4033 21.7054 37.5517 21.416L 39.3328 1.44703C 39.3328 0.723514 40.075 0.144703 40.8171 0.144703L 48.8321 0.144703C 49.1289 0.144703 49.5742 0.289406 49.7226 0.578811C 50.0195 0.868217 50.0195 1.15762 50.0195 1.59173L 45.4183 52.6718C 45.4183 53.3954 44.6762 53.9742 43.934 53.9742ZM 13.6552 29.8088L 36.2159 29.8088C 36.5127 29.8088 36.958 29.9535 37.1064 30.2429C 37.4033 30.5323 37.4033 30.8217 37.4033 31.2558L 35.4738 52.6718C 35.4738 52.8165 35.4738 52.9612 35.6222 53.1059C 35.7706 53.2506 35.919 53.2506 36.0675 53.2506L 44.0825 53.2506C 44.3793 53.2506 44.6762 52.9612 44.8246 52.6718L 49.4258 1.59173C 49.4258 1.44703 49.4258 1.30233 49.2774 1.15762C 49.1289 1.01292 48.9805 1.01292 48.8321 1.01292L 40.8171 1.01292C 40.5202 1.01292 40.2234 1.30233 40.075 1.59173L 38.2939 21.5607C 38.2939 22.2842 37.5517 22.863 36.8096 22.863L 14.2489 22.863C 13.952 22.863 13.5067 22.7183 13.3583 22.4289C 13.0615 22.1395 13.0615 21.8501 13.0615 21.5607L 14.8426 1.59173C 14.8426 1.44703 14.8426 1.30233 14.6942 1.15762C 14.5457 1.01292 14.3973 1.01292 14.2489 1.01292L 6.08546 1.01292C 5.78861 1.01292 5.49175 1.30233 5.34333 1.59173L 0.742129 52.6718C 0.742129 52.8165 0.742129 52.9612 0.890555 53.1059C 1.03898 53.2506 1.18741 53.2506 1.33583 53.2506L 9.49925 53.2506C 9.7961 53.2506 10.093 52.9612 10.2414 52.6718L 12.1709 31.2558C 12.3193 30.3876 12.913 29.8088 13.6552 29.8088Z"/>
<path id="path4_fill" d="M 10.5168 -6.24653e-07C 11.1105 -6.24653e-07 11.4074 0.434109 11.4074 0.868217L 9.62626 20.2584C 9.03256 27.4935 11.2589 31.1111 16.4538 31.1111C 21.6488 31.1111 24.6173 27.4935 25.211 20.2584L 26.9921 0.868217C 26.9921 0.289406 27.4374 -6.24653e-07 28.0311 -6.24653e-07L 35.6008 -6.24653e-07C 36.1945 -6.24653e-07 36.4913 0.434109 36.4913 0.868217L 34.5618 21.9948C 33.5228 33.137 27.2889 38.6357 15.8601 38.6357C 4.43136 38.6357 -0.911967 33.137 0.127013 21.9948L 2.05655 0.868217C 2.05655 0.289406 2.50182 -6.24653e-07 3.09553 -6.24653e-07L 10.5168 -6.24653e-07Z"/>
<path id="path5_fill" d="M 16.1297 39.5039C 10.3411 39.5039 6.03672 38.0568 3.36506 35.1628C 0.693394 32.2687 -0.345586 28.0724 0.0996909 22.4289L 2.02923 1.30233C 2.02923 0.578812 2.77136 -4.01595e-07 3.51348 -4.01595e-07L 11.0832 -4.01595e-07C 11.38 -4.01595e-07 11.8253 0.144702 11.9738 0.434108C 12.2706 0.723514 12.2706 1.01292 12.2706 1.30233L 10.4895 20.6925C 10.0442 24.8889 10.7863 27.7829 12.2706 29.5194C 13.3096 30.677 14.9423 31.2558 16.8718 31.2558C 21.9183 31.2558 24.5899 27.7829 25.3321 20.6925L 27.1132 1.30233C 27.1132 0.578812 27.8553 -4.01595e-07 28.5974 -4.01595e-07L 36.1672 -4.01595e-07C 36.464 -4.01595e-07 36.9093 0.144702 37.0577 0.434108C 37.3546 0.723514 37.3546 1.01292 37.3546 1.30233L 35.425 22.4289C 34.2376 33.8605 27.8553 39.5039 16.1297 39.5039ZM 3.36506 0.868218C 3.06821 0.868218 2.77136 1.15762 2.62293 1.44703L 0.693396 22.5736C 0.248119 28.0724 1.2871 32.124 3.81034 34.8734C 6.33358 37.6227 10.4895 38.9251 16.1297 38.9251C 27.5585 38.9251 33.4955 33.5711 34.5345 22.5736L 36.464 1.44703C 36.464 1.30233 36.464 1.15762 36.3156 1.01292C 36.1672 0.868218 36.0187 0.868218 35.8703 0.868218L 28.3006 0.868218C 28.0037 0.868218 27.7069 1.15762 27.5585 1.44703L 25.7773 20.8372C 25.0352 28.3618 22.0667 32.124 16.575 32.124C 14.3486 32.124 12.5675 31.4005 11.38 30.2429C 9.59894 28.3618 9.00524 25.323 9.45051 20.8372L 11.2316 1.44703C 11.2316 1.30233 11.2316 1.15762 11.0832 1.01292C 10.9348 0.868218 10.7863 0.868218 10.6379 0.868218L 3.36506 0.868218Z"/>
<path id="path6_fill" d="M 40.3511 19.8243C 39.7573 25.7571 37.531 30.5323 33.5235 34.2946C 29.516 38.0568 24.4695 39.938 18.5325 39.938C 12.5954 39.938 7.84579 38.0568 4.432 34.2946C 1.01821 30.5323 -0.466043 25.7571 0.12766 19.969C 0.721363 14.1809 2.94775 9.26098 6.95525 5.64341C 10.9627 1.88114 16.0092 -1.33814e-07 22.0947 -1.33814e-07C 28.1801 -1.33814e-07 32.7813 1.88114 36.1951 5.49871C 39.4605 9.11628 40.9448 13.8915 40.3511 19.8243ZM 9.47848 19.969C 9.18163 23.4419 9.92376 26.3359 11.7049 28.5065C 13.486 30.677 16.0092 31.8346 19.1262 31.8346C 22.2431 31.8346 24.9148 30.677 27.1412 28.2171C 29.2191 25.9018 30.4065 23.0078 30.7034 19.8243C 31.0002 16.4961 30.2581 13.7468 28.477 11.4315C 26.6959 9.11628 24.3211 7.81395 21.2041 7.81395C 18.0872 7.81395 15.4155 8.97158 13.1891 11.2868C 11.1112 13.4574 9.92376 16.3514 9.47848 19.969Z"/>
<path id="path7_fill" d="M 18.9699 40.6615C 12.8844 40.6615 7.98639 38.7804 4.5726 34.8734C 1.1588 31.1111 -0.473885 26.1912 0.119818 20.2584C 0.713521 14.3256 2.93991 9.40568 7.09583 5.64341C 11.2518 1.88114 16.2982 1.63596e-07 22.3837 1.63596e-07C 28.4691 1.63596e-07 33.3672 1.88114 36.781 5.64341C 40.1948 9.40568 41.679 14.3256 41.2338 20.2584C 40.6401 26.1912 38.4137 31.1111 34.2578 34.8734C 30.1018 38.7804 25.0553 40.6615 18.9699 40.6615ZM 22.3837 0.723514C 16.4467 0.723514 11.5486 2.60465 7.54111 6.22222C 3.53361 9.83979 1.30723 14.615 0.86195 20.4031C 0.416673 26.1912 1.7525 30.8217 5.16629 34.4393C 8.43166 38.0568 13.1813 39.938 18.9699 39.938C 24.9069 39.938 29.805 38.0568 33.8125 34.4393C 37.82 30.8217 40.0464 26.0465 40.4916 20.2584C 40.9369 14.4703 39.6011 9.69509 36.3357 6.22222C 32.9219 2.60465 28.3207 0.723514 22.3837 0.723514ZM 19.712 32.7028C 16.4467 32.7028 13.775 31.5452 11.9939 29.23C 10.0643 26.9147 9.32222 24.0207 9.61907 20.4031C 9.91592 16.7855 11.2518 13.8915 13.4781 11.5762C 15.7045 9.26098 18.5246 8.10336 21.79 8.10336C 25.0553 8.10336 27.5786 9.40569 29.3597 11.8656C 31.1408 14.3256 31.8829 17.2196 31.5861 20.5478C 31.2892 23.876 30.1018 26.77 27.8754 29.23C 25.7975 31.5452 22.9774 32.7028 19.712 32.7028ZM 21.79 8.68217C 18.8215 8.68217 16.1498 9.83979 14.0718 12.0103C 11.9939 14.1809 10.658 17.0749 10.3612 20.4031C 10.0643 23.876 10.8065 26.6253 12.5876 28.7959C 14.3687 30.9664 16.7435 31.9793 19.712 31.9793C 22.829 31.9793 25.3522 30.8217 27.4302 28.5065C 29.5081 26.1912 30.6955 23.4419 30.9924 20.2584C 31.2892 17.0749 30.5471 14.3256 28.9144 12.0103C 27.1333 9.83979 24.9069 8.68217 21.79 8.68217Z"/>
<path id="path8_fill" d="M 5.78861 -5.6885e-08L 13.3583 -5.6885e-08C 13.952 -5.6885e-08 14.2489 0.434109 14.2489 0.868217L 12.7646 17.509C 12.7646 18.3773 13.6552 18.6667 14.2489 18.2326C 17.069 16.2067 20.6312 15.0491 25.084 15.0491C 30.1304 15.0491 34.1379 17.0749 37.1064 20.9819C 40.075 24.8889 41.4108 29.5194 40.8171 34.8734C 40.3718 40.6615 38.1454 45.4367 34.5832 49.3437C 30.8726 53.2506 26.4198 55.1318 21.2249 55.1318C 15.5847 55.1318 11.7256 53.5401 9.94452 50.3566L 9.49925 52.9612C 9.49925 53.3953 8.90555 53.8295 8.46027 53.8295L 0.890553 53.8295C 0.29685 53.8295 -4.74112e-06 53.3953 -4.74112e-06 52.9612L 4.6012 0.868217C 4.74962 0.434109 5.19491 -5.6885e-08 5.78861 -5.6885e-08ZM 31.1694 35.1628C 31.4663 31.9793 30.7241 29.23 28.943 26.77C 27.4588 24.7442 25.3808 23.5866 23.006 23.2972C 19.1469 22.863 15.1394 24.7442 12.7646 27.7829C 11.1319 29.9535 10.2414 32.4134 9.94452 35.1628C 9.64767 38.491 10.3898 41.2403 12.3193 43.5556C 14.1005 45.8708 16.6237 47.1731 19.5922 47.1731C 22.8576 47.1731 25.5292 46.0155 27.6072 43.7003C 29.6852 41.385 30.8726 38.491 31.1694 35.1628Z"/>
<path id="path9_fill" d="M 21.5217 56C 16.3268 56 12.4678 54.553 10.3898 51.9483L 10.0929 53.6848C 9.94452 54.4083 9.35083 54.8424 8.75712 54.8424L 1.1874 54.8424C 0.890553 54.8424 0.445273 54.6977 0.296847 54.4083C -4.74045e-06 54.1189 5.42531e-06 53.8295 5.42531e-06 53.3953L 4.6012 1.30233C 4.6012 0.578811 5.34333 -3.32732e-08 6.08546 -3.32732e-08L 13.6552 -3.32732e-08C 13.952 -3.32732e-08 14.3973 0.144703 14.5457 0.434109C 14.8426 0.723514 14.8426 1.01292 14.8426 1.30233L 13.3583 17.9432C 13.3583 18.2326 13.5067 18.3773 13.6552 18.3773C 13.8036 18.522 14.1004 18.522 14.3973 18.2326C 17.2174 16.062 20.928 15.0491 25.5292 15.0491C 30.7241 15.0491 34.8801 17.0749 37.8486 21.1266C 40.8171 25.1783 42.1529 29.8088 41.7076 35.1628C 41.1139 40.9509 39.036 45.8708 35.3253 49.7778C 31.4663 54.1189 26.8651 56 21.5217 56ZM 9.94452 49.9225L 10.5382 50.7907C 12.3193 53.8295 16.03 55.4212 21.5217 55.4212C 26.7166 55.4212 31.021 53.5401 34.5832 49.7778C 38.1454 46.0155 40.2234 41.2403 40.8171 35.5969C 41.2624 30.3876 40.075 25.7571 37.1064 21.9948C 34.1379 18.2326 30.2789 16.2067 25.3808 16.2067C 21.0765 16.2067 17.5142 17.2196 14.6942 19.2455C 14.2489 19.5349 13.6552 19.6796 13.2099 19.3902C 12.7646 19.1008 12.6162 18.6667 12.6162 18.2326L 14.1004 1.59173C 14.1004 1.44703 14.1004 1.30233 13.952 1.15762C 13.8036 1.01292 13.6552 1.01292 13.5067 1.01292L 5.93703 1.01292C 5.64018 1.01292 5.34333 1.30233 5.1949 1.59173L 0.593699 53.6848C 0.593699 53.8295 0.5937 53.9742 0.742126 54.1189C 0.890552 54.2636 1.03898 54.2636 1.1874 54.2636L 8.75712 54.2636C 9.05397 54.2636 9.35083 53.9742 9.49925 53.6848L 9.94452 49.9225ZM 19.889 48.0413C 16.7721 48.0413 14.2489 46.739 12.3193 44.2791C 10.3898 41.8191 9.64767 38.9251 9.94452 35.5969C 10.2414 32.7028 11.1319 30.2429 12.7646 28.0724C 15.2879 24.7442 19.4438 22.8631 23.3028 23.4419C 25.8261 23.7313 27.9041 25.0336 29.5367 27.0594C 31.3178 29.5194 32.2084 32.4134 31.9115 35.5969C 31.6147 39.0698 30.2789 41.9638 28.2009 44.4238C 25.9745 46.8837 23.1544 48.0413 19.889 48.0413ZM 22.1154 24.1654C 18.8501 24.1654 15.5847 25.9018 13.5067 28.6512C 12.0225 30.677 10.9835 33.137 10.8351 35.8863C 10.5382 39.0698 11.2804 41.8191 13.0615 44.1344C 14.8426 46.4496 17.069 47.6072 20.0375 47.6072C 23.1544 47.6072 25.8261 46.4496 27.7556 44.2791C 29.8336 42.1085 31.021 39.2145 31.3178 35.8863C 31.6147 32.8475 30.8726 30.0982 29.0915 27.7829C 27.6072 25.9018 25.6777 24.7442 23.4513 24.4548C 22.8576 24.1654 22.4123 24.1654 22.1154 24.1654Z"/>
<path id="path10_fill" d="M 8.46026 37.3333L 0.890552 37.3333C 0.296849 37.3333 5.56027e-06 36.8992 5.56027e-06 36.4651L 3.26537 0.868217C 3.26537 0.289406 3.71064 -6.99005e-07 4.30435 -6.99005e-07L 11.8741 -6.99005e-07C 12.4678 -6.99005e-07 12.7646 0.434109 12.7646 0.868217L 9.49924 36.4651C 9.49924 37.0439 9.05396 37.3333 8.46026 37.3333Z"/>
<path id="path11_fill" d="M 8.75711 38.2016L 1.1874 38.2016C 0.890552 38.2016 0.445283 38.0569 0.296857 37.7674C 5.55625e-06 37.478 4.43782e-06 37.1886 4.43782e-06 36.8992L 3.26537 1.30233C 3.26537 0.578812 4.00749 -4.75948e-07 4.74962 -4.75948e-07L 12.3193 -4.75948e-07C 12.6162 -4.75948e-07 13.0615 0.144702 13.2099 0.434108C 13.5068 0.723514 13.5068 1.01292 13.5068 1.30233L 10.2414 36.8992C 10.0929 37.6227 9.49924 38.2016 8.75711 38.2016ZM 4.6012 0.723515C 4.30435 0.723515 4.00749 1.01292 3.85907 1.30233L 0.593698 36.8992C 0.593698 37.0439 0.593699 37.1886 0.742125 37.3333C 0.89055 37.478 1.03898 37.478 1.1874 37.478L 8.75711 37.478C 9.05396 37.478 9.35082 37.1886 9.49924 36.8992L 12.7646 1.30233C 12.7646 1.15762 12.7646 1.01292 12.6162 0.868218C 12.4678 0.723515 12.3193 0.723515 12.1709 0.723515L 4.6012 0.723515Z"/>
<path id="path12_fill" d="M 8.46027 8.39277L 0.890554 8.39277C 0.296851 8.39277 -3.9052e-06 7.95866 -3.9052e-06 7.52455L 0.593701 0.868217C 0.593701 0.289405 1.03898 1.63545e-07 1.63269 1.63545e-07L 9.2024 1.63545e-07C 9.79611 1.63545e-07 10.093 0.434108 10.093 0.868217L 9.49926 7.52455C 9.35083 7.95866 8.90555 8.39277 8.46027 8.39277Z"/>
<path id="path13_fill" d="M 8.75712 9.26098L 1.18741 9.26098C 0.890554 9.26098 0.445273 9.11628 0.296848 8.82687C -3.92465e-06 8.53747 -4.73172e-06 8.24806 -4.73172e-06 7.95866L 0.5937 1.30233C 0.5937 0.578811 1.33583 3.76067e-09 2.07796 3.76067e-09L 9.64768 3.76067e-09C 9.94453 3.76067e-09 10.3898 0.144703 10.5382 0.434109C 10.8351 0.723514 10.8351 1.01292 10.8351 1.44703L 10.2414 8.10336C 10.093 8.68217 9.49925 9.26098 8.75712 9.26098ZM 1.92954 0.723514C 1.63269 0.723514 1.33583 1.01292 1.18741 1.30233L 0.5937 7.95866C 0.5937 8.10336 0.593701 8.24806 0.742127 8.39277C 0.890552 8.53747 1.03898 8.53747 1.18741 8.53747L 8.75712 8.53747C 9.05398 8.53747 9.35083 8.24806 9.49926 7.95866L 10.093 1.30233C 10.093 1.15762 10.093 1.01292 9.94453 0.868217C 9.79611 0.723514 9.64768 0.723514 9.49926 0.723514L 1.92954 0.723514Z"/>
</defs>
</svg>
