<?xml version="1.0" encoding="UTF-8" standalone="no"?>
<svg
   xmlns:dc="http://purl.org/dc/elements/1.1/"
   xmlns:cc="http://creativecommons.org/ns#"
   xmlns:rdf="http://www.w3.org/1999/02/22-rdf-syntax-ns#"
   xmlns:svg="http://www.w3.org/2000/svg"
   xmlns="http://www.w3.org/2000/svg"
   viewBox="0 0 822.51001 537.51001"
   height="537.51001"
   width="822.51001"
   xml:space="preserve"
   version="1.1"
   id="svg2"><metadata
     id="metadata8"><rdf:RDF><cc:Work
         rdf:about=""><dc:format>image/svg+xml</dc:format><dc:type
           rdf:resource="http://purl.org/dc/dcmitype/StillImage" /></cc:Work></rdf:RDF></metadata><defs
     id="defs6" /><g
     transform="matrix(1.25,0,0,-1.25,0,537.51)"
     id="g10"><g
       transform="translate(300.8545,342.9292)"
       id="g12"><path
         id="path14"
         style="fill:#000000;fill-opacity:1;fill-rule:evenodd;stroke:none"
         d="m 0,0 -23.658,-38.57 87.429,-125.107 -67.285,0 -26.263,43.054 25.259,40.916 -24.64,34.15 -23.276,-37.943 -0.05,0.096 -23.661,-38.571 0.063,-0.092 -0.063,-0.096 22.543,-34.883 29.313,-45.578 8.361,0 36.186,0 64.361,0 23.998,39.183 L 0,0 Z" /></g><g
       transform="translate(437.0791,222.5337)"
       id="g16"><path
         id="path18"
         style="fill:#000000;fill-opacity:1;fill-rule:evenodd;stroke:none"
         d="m 0,0 -84.412,125.961 -46.779,0 -0.207,-0.325 L -47.121,0 0,0 Z" /></g></g></svg>