<svg xmlns="http://www.w3.org/2000/svg" viewBox="0 0 265.46 260.24"><defs><style>.cls-1{fill:#231815;}</style></defs><title>string01</title><g id="图层_2" data-name="图层 2"><g id="svg2"><g id="g10"><g id="g12"><g id="path14"><path class="cls-1" d="M95.22,8.81,229.77,211.28l-29.38,48h-135L29,202.72,1.19,159.66l.09-.13-.09-.13,28.32-46.16.06.12.92-1.51L58.8,65.71l29.53,40.92L57.11,157.21l-.32.52.32.53,32.83,53.81.29.48h86.58l-1.1-1.57L66.8,55.13,95.22,8.81m0-1.85L65.61,55.17,174.89,211.55H90.79L58,157.74l31.57-51.15L58.73,63.9,29.64,111.33l-.06-.12L0,159.43l.08.11-.08.12,28.18,43.6,36.64,57H201l30-49L95.18,7Z"/></g></g><g id="g16"><g id="path18"><path class="cls-1" d="M159.41,1,263.59,156.45h-56.5L102.82,1h56.59M160,0H101.47l-.26.41,105.35,157h58.9L160,0Z"/></g></g></g></g></g></svg>