<svg xmlns="http://www.w3.org/2000/svg" xmlns:xlink="http://www.w3.org/1999/xlink" viewBox="0 0 3306.66 1926.6"><defs><style>.cls-1{opacity:0.2;}.cls-2{fill:url(#linear-gradient);}.cls-3{fill:url(#linear-gradient-2);}.cls-4{fill:url(#linear-gradient-3);}.cls-5{fill:url(#linear-gradient-4);}.cls-6{fill:url(#linear-gradient-5);}.cls-7{fill:url(#linear-gradient-6);}.cls-8{fill:url(#linear-gradient-7);}.cls-9{fill:url(#linear-gradient-8);}.cls-10{fill:url(#linear-gradient-9);}.cls-11{fill:url(#linear-gradient-10);}.cls-12{fill:url(#linear-gradient-11);}.cls-13{fill:url(#linear-gradient-12);}.cls-14{fill:url(#linear-gradient-13);}.cls-15{fill:url(#linear-gradient-14);}.cls-16{fill:url(#linear-gradient-15);}.cls-17{fill:url(#linear-gradient-16);}.cls-18{fill:url(#linear-gradient-17);}.cls-19{fill:url(#linear-gradient-18);}.cls-20{fill:url(#linear-gradient-19);}.cls-21{fill:url(#linear-gradient-20);}.cls-22{fill:url(#linear-gradient-21);}.cls-23{fill:url(#linear-gradient-22);}.cls-24{fill:url(#linear-gradient-23);}.cls-25{fill:url(#linear-gradient-24);}.cls-26{fill:url(#linear-gradient-25);}.cls-27{fill:url(#linear-gradient-26);}.cls-28{fill:url(#linear-gradient-27);}.cls-29{fill:url(#linear-gradient-28);}.cls-30{fill:url(#linear-gradient-29);}.cls-31{fill:url(#linear-gradient-30);}.cls-32{fill:url(#linear-gradient-31);}.cls-33{fill:url(#linear-gradient-32);}.cls-34{fill:url(#linear-gradient-33);}.cls-35{fill:url(#linear-gradient-34);}.cls-36{fill:url(#linear-gradient-35);}.cls-37{fill:url(#linear-gradient-36);}.cls-38{fill:url(#linear-gradient-37);}.cls-39{fill:url(#linear-gradient-38);}.cls-40{fill:url(#linear-gradient-39);}.cls-41{fill:url(#linear-gradient-40);}.cls-42{fill:url(#linear-gradient-41);}.cls-43{fill:url(#linear-gradient-42);}.cls-44{fill:url(#linear-gradient-43);}.cls-45{fill:url(#linear-gradient-44);}.cls-46{fill:url(#linear-gradient-45);}.cls-47{fill:url(#linear-gradient-46);}.cls-48{fill:url(#linear-gradient-47);}.cls-49{fill:url(#linear-gradient-48);}.cls-50{fill:url(#linear-gradient-49);}.cls-51{fill:url(#linear-gradient-50);}.cls-52{fill:url(#linear-gradient-51);}.cls-53{fill:url(#linear-gradient-52);}.cls-54{fill:url(#linear-gradient-53);}.cls-55{fill:url(#linear-gradient-54);}.cls-56{fill:url(#linear-gradient-55);}.cls-57{fill:url(#linear-gradient-56);}.cls-58{fill:url(#linear-gradient-57);}.cls-59{fill:url(#linear-gradient-58);}.cls-60{fill:url(#linear-gradient-59);}.cls-61{fill:url(#linear-gradient-60);}.cls-62{fill:url(#linear-gradient-61);}.cls-63{fill:url(#linear-gradient-62);}.cls-64{fill:url(#linear-gradient-63);}.cls-65{fill:url(#linear-gradient-64);}.cls-66{fill:url(#linear-gradient-65);}.cls-67{fill:url(#linear-gradient-66);}.cls-68{fill:url(#linear-gradient-67);}.cls-69{fill:url(#linear-gradient-68);}.cls-70{fill:url(#linear-gradient-69);}.cls-71{fill:url(#linear-gradient-70);}.cls-72{fill:url(#linear-gradient-71);}.cls-73{fill:url(#linear-gradient-72);}.cls-74{fill:url(#linear-gradient-73);}.cls-75{fill:url(#linear-gradient-74);}.cls-76{fill:url(#linear-gradient-75);}.cls-77{fill:url(#linear-gradient-76);}.cls-78{fill:url(#linear-gradient-77);}.cls-79{fill:url(#linear-gradient-78);}.cls-80{fill:url(#linear-gradient-79);}.cls-81{fill:url(#linear-gradient-80);}.cls-82{fill:url(#linear-gradient-81);}.cls-83{fill:url(#linear-gradient-82);}.cls-84{fill:url(#linear-gradient-83);}.cls-85{fill:url(#linear-gradient-84);}.cls-86{fill:url(#linear-gradient-85);}.cls-87{fill:url(#linear-gradient-86);}.cls-88{fill:url(#linear-gradient-87);}.cls-89{fill:url(#linear-gradient-88);}.cls-90{fill:url(#linear-gradient-89);}.cls-91{fill:url(#linear-gradient-90);}.cls-92{fill:url(#linear-gradient-91);}.cls-93{fill:url(#linear-gradient-92);}.cls-94{fill:url(#linear-gradient-93);}.cls-95{fill:url(#linear-gradient-94);}.cls-96{fill:url(#linear-gradient-95);}.cls-97{fill:url(#linear-gradient-96);}.cls-98{fill:url(#linear-gradient-97);}.cls-99{fill:url(#linear-gradient-98);}.cls-100{fill:url(#linear-gradient-99);}.cls-101{fill:url(#linear-gradient-100);}.cls-102{fill:url(#linear-gradient-101);}.cls-103{fill:url(#linear-gradient-102);}.cls-104{fill:url(#linear-gradient-103);}.cls-105{fill:url(#linear-gradient-104);}.cls-106{fill:url(#linear-gradient-105);}.cls-107{fill:url(#linear-gradient-106);}.cls-108{fill:url(#linear-gradient-107);}</style><linearGradient id="linear-gradient" x1="891.48" y1="807.59" x2="891.48" y2="-121.99" gradientTransform="translate(-442.01 818.83) rotate(0.01)" gradientUnits="userSpaceOnUse"><stop offset="0" stop-color="#c7e8fa"/><stop offset="0.31" stop-color="#47bcda"/><stop offset="0.5" stop-color="#00a3c9"/><stop offset="1" stop-color="#b0dbf2"/></linearGradient><linearGradient id="linear-gradient-2" x1="1284.23" y1="881.65" x2="1284.23" y2="-47.93" gradientTransform="translate(-504.66 519.39) rotate(0.01)" xlink:href="#linear-gradient"/><linearGradient id="linear-gradient-3" x1="1204.12" y1="1480.4" x2="1204.12" y2="550.82" gradientTransform="translate(-57.86 400.78)" xlink:href="#linear-gradient"/><linearGradient id="linear-gradient-4" x1="1543.55" y1="1607.78" x2="1543.55" y2="678.2" gradientTransform="translate(-67.11 123.33) rotate(0.01)" xlink:href="#linear-gradient"/><linearGradient id="linear-gradient-5" x1="1310.14" y1="1374.37" x2="1310.14" y2="444.8" gradientTransform="matrix(1, 0, 0, 1, -163.72, 356.63)" xlink:href="#linear-gradient"/><linearGradient id="linear-gradient-6" x1="1698.61" y1="985.91" x2="1698.61" y2="56.33" gradientTransform="matrix(1, 0, 0, 1, -552.38, 196.08)" xlink:href="#linear-gradient"/><linearGradient id="linear-gradient-7" x1="2018.87" y1="1306.17" x2="2018.87" y2="376.59" gradientTransform="translate(-419.82 -123.98) rotate(-0.01)" xlink:href="#linear-gradient"/><linearGradient id="linear-gradient-8" x1="1991.19" y1="1800.66" x2="1991.19" y2="871.08" gradientTransform="matrix(1, 0, 0, 1, -61.7, -249.91)" xlink:href="#linear-gradient"/><linearGradient id="linear-gradient-9" x1="2370.35" y1="1190.84" x2="2370.35" y2="261.26" gradientTransform="translate(-604.17 -339.09)" xlink:href="#linear-gradient"/><linearGradient id="linear-gradient-10" x1="1814.38" y1="1977.47" x2="1814.38" y2="1047.89" gradientTransform="translate(114.88 -176.32)" xlink:href="#linear-gradient"/><linearGradient id="linear-gradient-11" x1="2320.09" y1="2129.56" x2="2320.09" y2="1199.98" gradientTransform="matrix(1, 0, 0, 1, 74.16, -578.25)" xlink:href="#linear-gradient"/><linearGradient id="linear-gradient-12" x1="2178.24" y1="2454.52" x2="2178.24" y2="1524.94" gradientTransform="matrix(1, 0, 0, 1, 345.98, -573.71)" xlink:href="#linear-gradient"/><linearGradient id="linear-gradient-13" x1="2510.48" y1="1573.15" x2="2510.48" y2="643.57" gradientTransform="translate(-374.8 -550.33) rotate(0.01)" xlink:href="#linear-gradient"/><linearGradient id="linear-gradient-14" x1="1801.81" y1="733.43" x2="1801.81" y2="-196.15" gradientTransform="translate(-761.13 197.12) rotate(-0.01)" xlink:href="#linear-gradient"/><linearGradient id="linear-gradient-15" x1="944.8" y1="1221.08" x2="944.8" y2="291.5" gradientTransform="translate(-165.27 660.1)" xlink:href="#linear-gradient"/><linearGradient id="linear-gradient-16" x1="1417.06" y1="237.55" x2="1417.06" y2="-692.03" gradientTransform="translate(-999.06 614.13)" xlink:href="#linear-gradient"/><linearGradient id="linear-gradient-17" x1="1004.35" y1="1997.63" x2="1004.35" y2="1068.05" gradientTransform="matrix(0, 1, -1, 0, 2077.87, -617.48)" xlink:href="#linear-gradient"/><linearGradient id="linear-gradient-18" x1="1237.75" y1="2231.03" x2="1237.75" y2="1301.46" gradientTransform="translate(2311.36 -520.67) rotate(90)" xlink:href="#linear-gradient"/><linearGradient id="linear-gradient-19" x1="1471.16" y1="1997.63" x2="1471.16" y2="1068.05" gradientTransform="matrix(0, 1, -1, 0, 2408.3, -753.8)" xlink:href="#linear-gradient"/><linearGradient id="linear-gradient-20" x1="1637.35" y1="1606.81" x2="1637.35" y2="677.23" gradientTransform="translate(2410.97 -1079.18) rotate(90)" xlink:href="#linear-gradient"/><linearGradient id="linear-gradient-21" x1="2008.94" y1="1459.84" x2="2008.94" y2="530.27" gradientTransform="matrix(0, 1, -1, 0, 2630.62, -1291.94)" xlink:href="#linear-gradient"/><linearGradient id="linear-gradient-22" x1="2090.28" y1="1074.37" x2="2090.28" y2="144.8" gradientTransform="translate(2575.56 -1588.2) rotate(90)" xlink:href="#linear-gradient"/><linearGradient id="linear-gradient-23" x1="2403.53" y1="1532.07" x2="2403.53" y2="602.49" gradientTransform="matrix(0, 1, -1, 0, 2930.75, -1356.44)" xlink:href="#linear-gradient"/><linearGradient id="linear-gradient-24" x1="1859.62" y1="2386.09" x2="1859.62" y2="1456.51" gradientTransform="translate(2796.63 -593.03) rotate(90)" xlink:href="#linear-gradient"/><linearGradient id="linear-gradient-25" x1="1643.4" y1="2454.19" x2="1643.4" y2="1524.61" gradientTransform="translate(2663.55 -481.69) rotate(90)" xlink:href="#linear-gradient"/><linearGradient id="linear-gradient-26" x1="2199.05" y1="2258.71" x2="2199.05" y2="1329.13" gradientTransform="translate(2999.24 -782.62) rotate(90)" xlink:href="#linear-gradient"/><linearGradient id="linear-gradient-27" x1="2345.07" y1="1433.83" x2="2345.07" y2="504.25" gradientTransform="translate(2860.44 -1408.86) rotate(89.99)" xlink:href="#linear-gradient"/><linearGradient id="linear-gradient-28" x1="1884.96" y1="1228.15" x2="1884.96" y2="298.57" gradientTransform="translate(2475.1 -1419.44) rotate(89.99)" xlink:href="#linear-gradient"/><linearGradient id="linear-gradient-29" x1="2225.69" y1="887.42" x2="2225.69" y2="-42.16" gradientTransform="translate(2616.24 -1760.12) rotate(90)" xlink:href="#linear-gradient"/><linearGradient id="linear-gradient-30" x1="2672.33" y1="767.95" x2="2672.33" y2="-161.63" gradientTransform="matrix(0, 1, -1, 0, 2896.71, -1975.44)" xlink:href="#linear-gradient"/><linearGradient id="linear-gradient-31" x1="2829.17" y1="1573.23" x2="2829.17" y2="643.66" gradientTransform="matrix(0, 1, -1, 0, 3243.94, -1451.93)" xlink:href="#linear-gradient"/><linearGradient id="linear-gradient-32" x1="2595.77" y1="1339.83" x2="2595.77" y2="410.25" gradientTransform="translate(3010.59 -1548.59) rotate(90)" xlink:href="#linear-gradient"/><linearGradient id="linear-gradient-33" x1="2626.37" y1="1004.41" x2="2626.37" y2="74.83" gradientTransform="matrix(0, 1, -1, 0, 2934.22, -1794.68)" xlink:href="#linear-gradient"/><linearGradient id="linear-gradient-34" x1="2630.81" y1="2081.71" x2="2630.81" y2="1152.13" gradientTransform="translate(3252.38 -1034.44) rotate(89.99)" xlink:href="#linear-gradient"/><linearGradient id="linear-gradient-35" x1="2669" y1="1738.27" x2="2669" y2="1132.02" gradientTransform="translate(3145.66 -1206.9) rotate(89.99)" gradientUnits="userSpaceOnUse"><stop offset="0" stop-color="#4c829a"/><stop offset="0.5" stop-color="#002131"/><stop offset="1" stop-color="#3c738a"/></linearGradient><linearGradient id="linear-gradient-36" x1="2577.11" y1="1390.52" x2="2577.11" y2="784.27" gradientTransform="matrix(0, 1, -1, 0, 2978.31, -1426.06)" xlink:href="#linear-gradient-35"/><linearGradient id="linear-gradient-37" x1="2322.32" y1="1497.87" x2="2322.32" y2="891.63" gradientTransform="translate(2830.89 -1274.93) rotate(90.01)" xlink:href="#linear-gradient-35"/><linearGradient id="linear-gradient-38" x1="2036.32" y1="2370.95" x2="2036.32" y2="1764.7" gradientTransform="matrix(0, 1, -1, 0, 2883.62, -574.38)" xlink:href="#linear-gradient-35"/><linearGradient id="linear-gradient-39" x1="1908.51" y1="816.34" x2="1908.51" y2="210.1" gradientTransform="translate(-1307.38 864.02)" xlink:href="#linear-gradient-35"/><linearGradient id="linear-gradient-40" x1="1794.12" y1="477.32" x2="1794.12" y2="-128.92" gradientTransform="translate(-1513.59 1044.2)" xlink:href="#linear-gradient-35"/><linearGradient id="linear-gradient-41" x1="2134.01" y1="331.87" x2="2134.01" y2="-274.37" gradientTransform="translate(-1715.99 846.46)" xlink:href="#linear-gradient-35"/><linearGradient id="linear-gradient-42" x1="2294.64" y1="-115.77" x2="2294.64" y2="-722.01" gradientTransform="translate(-2079.49 864.4) rotate(-0.01)" xlink:href="#linear-gradient-35"/><linearGradient id="linear-gradient-43" x1="2593.3" y1="72.2" x2="2593.3" y2="-534.05" gradientTransform="translate(-2034.09 598.21) rotate(-0.01)" xlink:href="#linear-gradient-35"/><linearGradient id="linear-gradient-44" x1="2826.71" y1="305.6" x2="2826.71" y2="-300.64" gradientTransform="translate(-1937.45 364.85) rotate(-0.01)" xlink:href="#linear-gradient-35"/><linearGradient id="linear-gradient-45" x1="2660.38" y1="634.6" x2="2660.38" y2="28.35" gradientTransform="translate(-1656.16 386.07) rotate(-0.01)" xlink:href="#linear-gradient-35"/><linearGradient id="linear-gradient-46" x1="2474.82" y1="887.34" x2="2474.82" y2="281.09" gradientTransform="translate(-1423.15 443.22) rotate(-0.01)" xlink:href="#linear-gradient-35"/><linearGradient id="linear-gradient-47" x1="2408.14" y1="1420.83" x2="2408.14" y2="814.58" gradientTransform="translate(-1026.1 333.28) rotate(0.01)" xlink:href="#linear-gradient-35"/><linearGradient id="linear-gradient-48" x1="2190.58" y1="1408.53" x2="2190.58" y2="802.29" gradientTransform="translate(-971.45 491.51) rotate(-0.01)" xlink:href="#linear-gradient-35"/><linearGradient id="linear-gradient-49" x1="2545.97" y1="1700.11" x2="2545.97" y2="1093.86" gradientTransform="matrix(1, 0, 0, 1, -868.93, 153.98)" xlink:href="#linear-gradient-35"/><linearGradient id="linear-gradient-50" x1="2785.98" y1="1586.49" x2="2785.98" y2="980.24" gradientTransform="translate(-1019.81 18)" xlink:href="#linear-gradient-35"/><linearGradient id="linear-gradient-51" x1="3008.52" y1="1179.55" x2="3008.52" y2="573.3" gradientTransform="matrix(1, 0, 0, 1, -1372.43, -21.23)" xlink:href="#linear-gradient-35"/><linearGradient id="linear-gradient-52" x1="3219.24" y1="968.82" x2="3219.24" y2="362.58" gradientTransform="translate(-1583.34 -108.02) rotate(0.01)" xlink:href="#linear-gradient-35"/><linearGradient id="linear-gradient-53" x1="3407.73" y1="886.62" x2="3407.73" y2="280.38" gradientTransform="translate(-1696.79 -216.66)" xlink:href="#linear-gradient-35"/><linearGradient id="linear-gradient-54" x1="3670.64" y1="1091.95" x2="3670.64" y2="485.7" gradientTransform="translate(-1628.61 -462.7)" xlink:href="#linear-gradient-35"/><linearGradient id="linear-gradient-55" x1="3856.29" y1="1335.18" x2="3856.29" y2="728.94" gradientTransform="translate(-1511.17 -664.54) rotate(-0.01)" xlink:href="#linear-gradient-35"/><linearGradient id="linear-gradient-56" x1="4175.72" y1="1490.13" x2="4175.72" y2="883.88" gradientTransform="matrix(1, 0, 0, 1, -1494.78, -937.2)" xlink:href="#linear-gradient-35"/><linearGradient id="linear-gradient-57" x1="4207.45" y1="1876.85" x2="4207.45" y2="1270.6" gradientTransform="translate(-1230.83 -1072.17)" xlink:href="#linear-gradient-35"/><linearGradient id="linear-gradient-58" x1="4288.79" y1="1958.19" x2="4288.79" y2="1351.94" gradientTransform="translate(-1196.56 -1155.01) rotate(0.02)" xlink:href="#linear-gradient-35"/><linearGradient id="linear-gradient-59" x1="4008.35" y1="2116.73" x2="4008.35" y2="1510.49" gradientTransform="translate(-1002.83 -1001.79)" xlink:href="#linear-gradient-35"/><linearGradient id="linear-gradient-60" x1="3734.91" y1="1871.8" x2="3734.91" y2="1265.56" gradientTransform="translate(-1095.45 -737.87) rotate(0.02)" xlink:href="#linear-gradient-35"/><linearGradient id="linear-gradient-61" x1="3850.55" y1="2396.42" x2="3850.55" y2="1790.18" gradientTransform="translate(-757.81 -974.01) rotate(0.03)" xlink:href="#linear-gradient-35"/><linearGradient id="linear-gradient-62" x1="3488.3" y1="2239.44" x2="3488.3" y2="1633.19" gradientTransform="translate(-764.77 -668.12) rotate(-0.03)" xlink:href="#linear-gradient-35"/><linearGradient id="linear-gradient-63" x1="3399.44" y1="1811.95" x2="3399.44" y2="1205.71" gradientTransform="translate(-1039.8 -482.41) rotate(0.01)" xlink:href="#linear-gradient-35"/><linearGradient id="linear-gradient-64" x1="3240.43" y1="1736.81" x2="3240.43" y2="1130.56" gradientTransform="matrix(1, 0, 0, 1, -1046.12, -348.51)" xlink:href="#linear-gradient-35"/><linearGradient id="linear-gradient-65" x1="2981.04" y1="1781.55" x2="2981.04" y2="1175.3" gradientTransform="matrix(1, 0, 0, 1, -938.75, -177.58)" xlink:href="#linear-gradient-35"/><linearGradient id="linear-gradient-66" x1="2927.54" y1="2081.68" x2="2927.54" y2="1475.44" gradientTransform="translate(-710.87 -227.55) rotate(0.01)" xlink:href="#linear-gradient-35"/><linearGradient id="linear-gradient-67" x1="3150.34" y1="2163.02" x2="3150.34" y2="1556.77" gradientTransform="matrix(1, 0, 0, 1, -718.88, -408.48)" xlink:href="#linear-gradient-35"/><linearGradient id="linear-gradient-68" x1="3318.87" y1="2346.97" x2="3318.87" y2="1740.73" gradientTransform="matrix(1, 0, 0, 1, -637.79, -582.13)" xlink:href="#linear-gradient-35"/><linearGradient id="linear-gradient-69" x1="3312.65" y1="1342.22" x2="3312.65" y2="735.98" gradientTransform="translate(-1346.6 -283.45) rotate(0.01)" xlink:href="#linear-gradient-35"/><linearGradient id="linear-gradient-70" x1="2048.68" y1="1664.19" x2="2048.68" y2="1057.95" gradientTransform="matrix(0, 1, -1, 0, 2684.99, -1077.86)" xlink:href="#linear-gradient-35"/><linearGradient id="linear-gradient-71" x1="2180.67" y1="2048.5" x2="2180.67" y2="1442.25" gradientTransform="translate(2891.21 -844.63) rotate(89.99)" xlink:href="#linear-gradient-35"/><linearGradient id="linear-gradient-72" x1="1905.62" y1="2156.75" x2="1905.62" y2="1550.5" gradientTransform="matrix(0, 1, -1, 0, 2728.49, -687.53)" xlink:href="#linear-gradient-35"/><linearGradient id="linear-gradient-73" x1="1614.48" y1="2098.39" x2="1614.48" y2="1492.15" gradientTransform="translate(2505.86 -643.19) rotate(90)" xlink:href="#linear-gradient-35"/><linearGradient id="linear-gradient-74" x1="1224.28" y1="2077.55" x2="1224.28" y2="1471.31" gradientTransform="translate(2223.85 -543.64) rotate(90)" xlink:href="#linear-gradient-35"/><linearGradient id="linear-gradient-75" x1="1483.46" y1="2336.73" x2="1483.46" y2="1730.48" gradientTransform="translate(2482.97 -436.36) rotate(90)" xlink:href="#linear-gradient-35"/><linearGradient id="linear-gradient-76" x1="1326.52" y1="1615.41" x2="1326.52" y2="1009.16" gradientTransform="translate(2161.02 -900.14) rotate(90.01)" xlink:href="#linear-gradient-35"/><linearGradient id="linear-gradient-77" x1="1497.47" y1="1444.46" x2="1497.47" y2="838.21" gradientTransform="translate(2231.64 -1071.28) rotate(90)" xlink:href="#linear-gradient-35"/><linearGradient id="linear-gradient-78" x1="1621.86" y1="1264.71" x2="1621.86" y2="658.47" gradientTransform="translate(2267.13 -1234.71) rotate(90.01)" xlink:href="#linear-gradient-35"/><linearGradient id="linear-gradient-79" x1="1868.93" y1="1484.45" x2="1868.93" y2="878.2" gradientTransform="matrix(0, 1, -1, 0, 2506.62, -1151.43)" xlink:href="#linear-gradient-35"/><linearGradient id="linear-gradient-80" x1="1907.47" y1="898.62" x2="1907.47" y2="292.37" gradientTransform="translate(2361.3 -1577.47) rotate(89.99)" xlink:href="#linear-gradient-35"/><linearGradient id="linear-gradient-81" x1="2162.63" y1="1034.05" x2="2162.63" y2="427.81" gradientTransform="translate(2581.43 -1556.44) rotate(89.99)" xlink:href="#linear-gradient-35"/><linearGradient id="linear-gradient-82" x1="2564.49" y1="950.88" x2="2564.49" y2="344.63" gradientTransform="translate(2841.52 -1732.85) rotate(90)" xlink:href="#linear-gradient-35"/><linearGradient id="linear-gradient-83" x1="2270.67" y1="727.03" x2="2270.67" y2="120.79" gradientTransform="matrix(0, 1, -1, 0, 2567.8, -1805.15)" xlink:href="#linear-gradient-35"/><linearGradient id="linear-gradient-84" x1="2445.83" y1="496.09" x2="2445.83" y2="-110.15" gradientTransform="translate(2624.84 -2019.64) rotate(90.01)" xlink:href="#linear-gradient-35"/><linearGradient id="linear-gradient-85" x1="2703.42" y1="401.19" x2="2703.42" y2="-205.06" gradientTransform="translate(2778.28 -2162.24) rotate(89.99)" xlink:href="#linear-gradient-35"/><linearGradient id="linear-gradient-86" x1="2896.65" y1="349.41" x2="2896.65" y2="-256.83" gradientTransform="translate(2900.63 -2255.42) rotate(90.01)" xlink:href="#linear-gradient-35"/><linearGradient id="linear-gradient-87" x1="2886.4" y1="1038.63" x2="2886.4" y2="432.39" gradientTransform="matrix(0, 1, -1, 0, 3095.25, -1764.98)" xlink:href="#linear-gradient-35"/><linearGradient id="linear-gradient-88" x1="3013.73" y1="1165.95" x2="3013.73" y2="559.71" gradientTransform="matrix(0, 1, -1, 0, 3222.69, -1712.19)" xlink:href="#linear-gradient-35"/><linearGradient id="linear-gradient-89" x1="3085.82" y1="1610.16" x2="3085.82" y2="1003.91" gradientTransform="matrix(0, 1, -1, 0, 3403.25, -1419.36)" xlink:href="#linear-gradient-35"/><linearGradient id="linear-gradient-90" x1="3234.73" y1="1476.67" x2="3234.73" y2="870.42" gradientTransform="matrix(0, 1, -1, 0, 3468.88, -1557.57)" xlink:href="#linear-gradient-35"/><linearGradient id="linear-gradient-91" x1="3353.24" y1="989.12" x2="3353.24" y2="382.87" gradientTransform="matrix(0, 1, -1, 0, 3410.44, -1936.83)" xlink:href="#linear-gradient-35"/><linearGradient id="linear-gradient-92" x1="3569.83" y1="963.47" x2="3569.83" y2="357.23" gradientTransform="translate(3554.84 -2018.63) rotate(89.98)" xlink:href="#linear-gradient-35"/><linearGradient id="linear-gradient-93" x1="3389.24" y1="627.77" x2="3389.24" y2="21.52" gradientTransform="translate(3331.25 -2202.77) rotate(90.02)" xlink:href="#linear-gradient-35"/><linearGradient id="linear-gradient-94" x1="3190.56" y1="522.31" x2="3190.56" y2="-83.94" gradientTransform="translate(3157.68 -2219.33) rotate(89.98)" xlink:href="#linear-gradient-35"/><linearGradient id="linear-gradient-95" x1="3078.12" y1="194.77" x2="3078.12" y2="-411.48" gradientTransform="translate(2983.25 -2417.93) rotate(90)" xlink:href="#linear-gradient-35"/><linearGradient id="linear-gradient-96" x1="2887.94" y1="1519.33" x2="2887.94" y2="913.08" gradientTransform="matrix(0, 1, -1, 0, 3236.72, -1425.63)" xlink:href="#linear-gradient-35"/><linearGradient id="linear-gradient-97" x1="3023.56" y1="1540.84" x2="3023.56" y2="611.26" gradientTransform="matrix(0, 1, -1, 0, 3372.01, -1531.73)" xlink:href="#linear-gradient"/><linearGradient id="linear-gradient-98" x1="3299.48" y1="1158.28" x2="3299.48" y2="228.7" gradientTransform="matrix(0, 1, -1, 0, 3455.01, -1883.07)" xlink:href="#linear-gradient"/><linearGradient id="linear-gradient-99" x1="3041.07" y1="669.89" x2="3041.07" y2="-259.69" gradientTransform="translate(3129.51 -2152.71) rotate(90.01)" xlink:href="#linear-gradient"/><linearGradient id="linear-gradient-100" x1="2970.24" y1="553.9" x2="2970.24" y2="-375.67" gradientTransform="translate(3044.67 -2214.01) rotate(89.99)" xlink:href="#linear-gradient"/><linearGradient id="linear-gradient-101" x1="2470.4" y1="451.09" x2="2470.4" y2="-478.49" gradientTransform="translate(2661.81 -2140.3) rotate(90)" xlink:href="#linear-gradient"/><linearGradient id="linear-gradient-102" x1="2855.05" y1="2113.84" x2="2855.05" y2="1184.26" gradientTransform="translate(-93.6 -951.93)" xlink:href="#linear-gradient"/><linearGradient id="linear-gradient-103" x1="2567.32" y1="2631.55" x2="2567.32" y2="1701.97" gradientTransform="translate(357 -900.48)" xlink:href="#linear-gradient"/><linearGradient id="linear-gradient-104" x1="2084.99" y1="824.99" x2="2084.99" y2="-104.59" gradientTransform="translate(-779.27 -30.26)" xlink:href="#linear-gradient"/><linearGradient id="linear-gradient-105" x1="2752.17" y1="2257.51" x2="2752.17" y2="1327.93" gradientTransform="translate(38.51 -921.89) rotate(0.01)" xlink:href="#linear-gradient"/><linearGradient id="linear-gradient-106" x1="2236.8" y1="976.81" x2="2236.8" y2="47.23" gradientTransform="translate(-716.45 -181.78)" xlink:href="#linear-gradient"/><linearGradient id="linear-gradient-107" x1="3042.81" y1="1974.44" x2="3042.81" y2="1044.86" gradientTransform="translate(-247.19 -1043.79) rotate(-0.01)" xlink:href="#linear-gradient"/></defs><title>底纹2</title><g id="图层_2" data-name="图层 2"><g id="图层_1-2" data-name="图层 1"><g class="cls-1"><rect class="cls-2" x="447.42" y="696.92" width="4.04" height="929.57" transform="translate(-689.85 658.15) rotate(-45.01)"/><rect class="cls-3" x="777.5" y="471.57" width="4.04" height="929.57" transform="translate(-433.8 825.56) rotate(-45.01)"/><rect class="cls-4" x="1144.23" y="951.59" width="4.04" height="929.57" transform="translate(-665.8 1225.37) rotate(-45)"/><rect class="cls-5" x="1474.31" y="801.66" width="4.04" height="929.57" transform="translate(-463.09 1415.02) rotate(-45.01)"/><rect class="cls-6" x="1144.23" y="801.65" width="4.04" height="929.57" transform="translate(-559.79 1181.75) rotate(-45.01)"/><rect class="cls-7" x="1144.23" y="252.29" width="4.04" height="929.57" transform="translate(-171.34 1020.45) rotate(-45)"/><rect class="cls-8" x="1597.14" y="252.29" width="4.04" height="929.57" transform="translate(-38.76 1340.54) rotate(-44.99)"/><rect class="cls-9" x="1927.22" y="621.51" width="4.04" height="929.57" transform="translate(-202.96 1682.72) rotate(-45.01)"/><rect class="cls-10" x="1764.12" y="-77.79" width="4.04" height="929.57" transform="translate(243.66 1362.23) rotate(-45)"/><rect class="cls-11" x="1927.22" y="871.56" width="4.04" height="929.57" transform="translate(-379.88 1755.59) rotate(-45)"/><rect class="cls-12" x="2392.35" y="621.51" width="4.04" height="929.57" transform="translate(-66.91 2011.03) rotate(-44.99)"/><rect class="cls-13" x="2521.83" y="951.59" width="4.04" height="929.57" transform="translate(-262.17 2199.97) rotate(-45.01)"/><rect class="cls-14" x="2133.54" y="93.45" width="4.04" height="929.57" transform="translate(230.85 1673.74) rotate(-45.01)"/><rect class="cls-15" x="1038.67" y="0.79" width="4.04" height="929.57" transform="translate(-24.44 872.13) rotate(-44.99)"/><rect class="cls-16" x="777.5" y="951.59" width="4.04" height="929.57" transform="translate(-773.22 966.05) rotate(-45)"/><rect class="cls-17" x="415.98" y="-77.79" width="4.04" height="929.57" transform="translate(-151.21 408.96) rotate(-45)"/><rect class="cls-18" x="80.35" y="384.97" width="929.57" height="4.04" transform="translate(-113.99 498.76) rotate(-44.99)"/><rect class="cls-19" x="80.35" y="715.05" width="929.57" height="4.04" transform="translate(-347.38 595.49) rotate(-45)"/><rect class="cls-20" x="410.43" y="715.05" width="929.57" height="4.04" transform="translate(-250.68 829.09) rotate(-45.01)"/><rect class="cls-21" x="804.3" y="556.22" width="929.57" height="4.04" transform="translate(-23.06 1060.79) rotate(-45)"/><rect class="cls-22" x="1170.97" y="715.05" width="929.57" height="4.04" transform="translate(-28 1366.53) rotate(-44.99)"/><rect class="cls-23" x="1501.05" y="500" width="929.57" height="4.04" transform="translate(220.87 1537.21) rotate(-45)"/><rect class="cls-24" x="1398.91" y="1045.13" width="929.57" height="4.04" transform="translate(-194.64 1624.35) rotate(-44.99)"/><rect class="cls-25" x="410.43" y="1264.42" width="929.57" height="4.04" transform="translate(-639.18 989.91) rotate(-45)"/><rect class="cls-26" x="209.39" y="1159.68" width="929.57" height="4.04" transform="translate(-623.98 816.97) rotate(-45)"/><rect class="cls-27" x="740.51" y="1414.36" width="929.57" height="4.04" transform="translate(-648.51 1267.15) rotate(-45)"/><rect class="cls-28" x="1427.04" y="934.34" width="929.57" height="4.04" transform="translate(-108.12 1611.62) rotate(-44.99)"/><rect class="cls-29" x="1247.13" y="463.55" width="929.57" height="4.04" transform="translate(172.12 1346.74) rotate(-44.99)"/><rect class="cls-30" x="1728.99" y="463.55" width="929.57" height="4.04" transform="translate(313.24 1687.46) rotate(-45)"/><rect class="cls-31" x="2129.28" y="694.89" width="929.57" height="4.04" transform="translate(266.73 2037.95) rotate(-44.99)"/><rect class="cls-32" x="1670.77" y="1375.22" width="929.57" height="4.04" transform="translate(-348.37 1913.41) rotate(-45)"/><rect class="cls-33" x="1670.77" y="1045.13" width="929.57" height="4.04" transform="translate(-114.96 1816.77) rotate(-45)"/><rect class="cls-34" x="1929.59" y="829.6" width="929.57" height="4.04" transform="translate(113.35 1936.85) rotate(-45.01)"/><rect class="cls-35" x="1170.97" y="1594.5" width="929.57" height="4.04" transform="translate(-649.81 1624.02) rotate(-44.99)"/><rect class="cls-36" x="1407.78" y="1461.27" width="606.24" height="2.02" transform="translate(-532.9 1637.77) rotate(-44.99)"/><rect class="cls-37" x="1588.7" y="1150.4" width="606.24" height="2.02" transform="translate(-260.25 1674.21) rotate(-44.98)"/><rect class="cls-38" x="1332.63" y="1046.14" width="606.24" height="2.02" transform="translate(-261.28 1463.69) rotate(-45.01)"/><rect class="cls-39" x="513.05" y="1461.27" width="606.24" height="2.02" transform="translate(-794.86 1005.13) rotate(-44.99)"/><rect class="cls-40" x="600.11" y="1074.12" width="2.02" height="606.24" transform="translate(-797.79 828.44) rotate(-45)"/><rect class="cls-41" x="279.5" y="915.28" width="2.02" height="606.24" transform="translate(-779.38 555.21) rotate(-45)"/><rect class="cls-42" x="416.99" y="572.1" width="2.02" height="606.24" transform="translate(-496.44 551.92) rotate(-45)"/><rect class="cls-43" x="214.04" y="141.99" width="2.02" height="606.24" transform="translate(-251.72 282.35) rotate(-44.99)"/><rect class="cls-44" x="558.14" y="63.71" width="2.02" height="606.24" transform="translate(-95.64 502.7) rotate(-44.99)"/><rect class="cls-45" x="888.22" y="63.71" width="2.02" height="606.24" transform="translate(0.99 736.07) rotate(-44.99)"/><rect class="cls-46" x="1003.25" y="413.95" width="2.02" height="606.24" transform="translate(-212.94 919.93) rotate(-44.99)"/><rect class="cls-47" x="1050.74" y="723.88" width="2.02" height="606.24" transform="translate(-418.15 1044.25) rotate(-44.99)"/><rect class="cls-48" x="1380.82" y="1148.25" width="2.02" height="606.24" transform="translate(-621.55 1402.54) rotate(-45.01)"/><rect class="cls-49" x="1218.3" y="1293.4" width="2.02" height="606.24" transform="translate(-771.74 1329.43) rotate(-44.99)"/><rect class="cls-50" x="1675.76" y="1248.28" width="2.02" height="606.24" transform="translate(-605.87 1640.45) rotate(-45.01)"/><rect class="cls-51" x="1765.13" y="998.23" width="2.02" height="606.24" transform="translate(-402.9 1630.01) rotate(-45)"/><rect class="cls-52" x="1634.74" y="553.12" width="2.02" height="606.24" transform="translate(-126.16 1408.05) rotate(-45.02)"/><rect class="cls-53" x="1634.74" y="255.12" width="2.02" height="606.24" transform="translate(84.5 1320.43) rotate(-45.01)"/><rect class="cls-54" x="1709.89" y="63.71" width="2.02" height="606.24" transform="translate(241.72 1317.24) rotate(-45)"/><rect class="cls-55" x="2040.99" y="22.99" width="2.02" height="606.24" transform="translate(367.49 1539.42) rotate(-45)"/><rect class="cls-56" x="2344.25" y="63.71" width="2.02" height="606.24" transform="translate(427.27 1765.45) rotate(-44.99)"/><rect class="cls-57" x="2679.68" y="-52.6" width="2.02" height="606.24" transform="translate(608.31 1969.27) rotate(-45.01)"/><rect class="cls-58" x="2975.57" y="198.42" width="2.02" height="606.24" transform="translate(517.18 2251.66) rotate(-45)"/><rect class="cls-59" x="3090.6" y="198.42" width="2.02" height="606.24" transform="translate(551.51 2333.88) rotate(-45.02)"/><rect class="cls-60" x="3004.41" y="508.82" width="2.02" height="606.24" transform="translate(306.19 2363.06) rotate(-45)"/><rect class="cls-61" x="2637.87" y="528.98" width="2.02" height="606.24" transform="translate(184.97 2110.55) rotate(-45.02)"/><rect class="cls-62" x="3090.6" y="818.17" width="2.02" height="606.24" transform="translate(113.37 2516.08) rotate(-45.03)"/><rect class="cls-63" x="2723.45" y="963.32" width="2.02" height="606.24" transform="translate(-98.05 2296.01) rotate(-44.97)"/><rect class="cls-64" x="2358.34" y="723.88" width="2.02" height="606.24" transform="translate(-34.99 1969.53) rotate(-45.01)"/><rect class="cls-65" x="2192.76" y="783.18" width="2.02" height="606.24" transform="translate(-125.31 1870.21) rotate(-45.02)"/><rect class="cls-66" x="2040.99" y="998.23" width="2.02" height="606.24" transform="translate(-322.02 1825.48) rotate(-45.01)"/><rect class="cls-67" x="2215.38" y="1248.28" width="2.02" height="606.24" transform="translate(-447.77 2021.99) rotate(-45.01)"/><rect class="cls-68" x="2430.44" y="1148.25" width="2.02" height="606.24" transform="translate(-314.13 2144.37) rotate(-45)"/><rect class="cls-69" x="2679.68" y="1159.16" width="2.02" height="606.24" transform="translate(-248.68 2324.34) rotate(-45.01)"/><rect class="cls-70" x="1964.82" y="453.1" width="2.02" height="606.24" transform="translate(41.2 1611.88) rotate(-45.01)"/><rect class="cls-71" x="1021.53" y="970.26" width="606.24" height="2.02" transform="translate(-298.9 1220.58) rotate(-44.98)"/><rect class="cls-72" x="843.13" y="1335.34" width="606.24" height="2.02" transform="translate(-609.19 1201.61) rotate(-44.99)"/><rect class="cls-73" x="572.09" y="1217.39" width="606.24" height="2.02" transform="translate(-605.15 975.47) rotate(-44.99)"/><rect class="cls-74" x="407.49" y="970.26" width="606.24" height="2.02" transform="translate(-478.66 786.96) rotate(-45)"/><rect class="cls-75" x="146.32" y="679.62" width="606.24" height="2.02" transform="translate(-349.64 517.15) rotate(-45)"/><rect class="cls-76" x="146.32" y="1046.15" width="606.24" height="2.02" transform="translate(-608.8 624.47) rotate(-45)"/><rect class="cls-77" x="545.39" y="425.13" width="606.24" height="2.02" transform="translate(-52.75 724.96) rotate(-45.01)"/><rect class="cls-78" x="787.15" y="425.13" width="606.24" height="2.02" transform="translate(18.02 895.78) rotate(-45)"/><rect class="cls-79" x="1002.2" y="385.98" width="606.24" height="2.02" transform="translate(108.77 1036.52) rotate(-45.01)"/><rect class="cls-80" x="1021.53" y="716.06" width="606.24" height="2.02" transform="translate(-118.92 1147.2) rotate(-45.02)"/><rect class="cls-81" x="1463.02" y="329.07" width="606.24" height="2.02" transform="translate(283.71 1345.27) rotate(-44.99)"/><rect class="cls-82" x="1547.68" y="605.27" width="606.24" height="2.02" transform="translate(113.26 1486.05) rotate(-44.99)"/><rect class="cls-83" x="1890.65" y="830.61" width="606.24" height="2.02" transform="translate(54.5 1794.8) rotate(-45)"/><rect class="cls-84" x="1841.17" y="464.56" width="606.24" height="2.02" transform="translate(298.63 1652.28) rotate(-44.99)"/><rect class="cls-85" x="2128.33" y="425.13" width="606.24" height="2.02" transform="translate(411.08 1844.46) rotate(-45.01)"/><rect class="cls-86" x="2377.57" y="540.15" width="606.24" height="2.02" transform="translate(402.23 2053.64) rotate(-44.99)"/><rect class="cls-87" x="2550.81" y="640.18" width="606.24" height="2.02" transform="translate(382.73 2206.18) rotate(-45.01)"/><rect class="cls-88" x="2056.23" y="1120.28" width="606.24" height="2.02" transform="translate(-101.72 1997.07) rotate(-45.01)"/><rect class="cls-89" x="2056.23" y="1300.34" width="606.24" height="2.02" transform="translate(-229.03 2049.92) rotate(-45.01)"/><rect class="cls-90" x="1793.1" y="1665.42" width="606.24" height="2.02" transform="translate(-564.37 1970.34) rotate(-45)"/><rect class="cls-91" x="1992.79" y="1676.32" width="606.24" height="2.02" transform="translate(-513.67 2114.24) rotate(-44.99)"/><rect class="cls-92" x="2421.34" y="1415.37" width="606.24" height="2.02" transform="translate(-203.56 2341.33) rotate(-45)"/><rect class="cls-93" x="2592.62" y="1550.39" width="606.24" height="2.02" transform="translate(-249.19 2500.89) rotate(-44.98)"/><rect class="cls-94" x="2702.3" y="1185.31" width="606.24" height="2.02" transform="translate(41.86 2473.66) rotate(-45.02)"/><rect class="cls-95" x="2636.39" y="970.26" width="606.24" height="2.02" transform="translate(173.73 2362.15) rotate(-44.98)"/><rect class="cls-96" x="2788.49" y="659.15" width="606.24" height="2.02" transform="translate(438.71 2379.45) rotate(-45)"/><rect class="cls-97" x="1717.41" y="1461.27" width="606.24" height="2.02" transform="translate(-442.19 1857.02) rotate(-45)"/><rect class="cls-98" x="1831.13" y="1489.76" width="929.57" height="4.04" transform="translate(-382.38 2060.43) rotate(-45)"/><rect class="cls-99" x="2296.74" y="1414.36" width="929.57" height="4.04" transform="translate(-192.7 2367.54) rotate(-45)"/><rect class="cls-100" x="2459.36" y="886.3" width="929.57" height="4.04" transform="translate(228.45 2328.1) rotate(-45.01)"/><rect class="cls-101" x="2491.29" y="754.2" width="929.57" height="4.04" transform="translate(330.82 2311.29) rotate(-44.99)"/><rect class="cls-102" x="2210.56" y="328.06" width="929.57" height="4.04" transform="translate(550.3 1988.58) rotate(-45)"/><rect class="cls-103" x="2759.51" y="232.13" width="4.04" height="929.57" transform="translate(315.94 2156.65) rotate(-45)"/><rect class="cls-104" x="2922.13" y="801.65" width="4.04" height="929.57" transform="translate(-38.96 2438.82) rotate(-45)"/><rect class="cls-105" x="1303.65" y="-134.7" width="4.04" height="929.57" transform="translate(149.07 1020.01) rotate(-45)"/><rect class="cls-106" x="2788.35" y="406.46" width="4.04" height="929.57" transform="translate(201.43 2228.68) rotate(-45.01)"/><rect class="cls-107" x="1518.35" y="-134.7" width="4.04" height="929.57" transform="translate(211.85 1171.65) rotate(-45)"/><rect class="cls-108" x="2793.7" y="0.79" width="4.04" height="929.57" transform="translate(489.49 2113.03) rotate(-44.99)"/></g></g></g></svg>