<svg xmlns="http://www.w3.org/2000/svg" xmlns:xlink="http://www.w3.org/1999/xlink" viewBox="0 0 3306.66 1926.6"><defs><style>.cls-1{fill:url(#linear-gradient);}.cls-2{fill:url(#linear-gradient-2);}.cls-3{fill:url(#linear-gradient-3);}.cls-4{fill:url(#linear-gradient-4);}.cls-5{fill:url(#linear-gradient-5);}.cls-6{fill:url(#linear-gradient-6);}.cls-7{fill:url(#linear-gradient-7);}.cls-8{fill:url(#linear-gradient-8);}.cls-9{fill:url(#linear-gradient-9);}.cls-10{fill:url(#linear-gradient-10);}.cls-11{fill:url(#linear-gradient-11);}.cls-12{fill:url(#linear-gradient-12);}.cls-13{fill:url(#linear-gradient-13);}.cls-14{fill:url(#linear-gradient-14);}.cls-15{fill:url(#linear-gradient-15);}.cls-16{fill:url(#linear-gradient-16);}.cls-17{fill:url(#linear-gradient-17);}.cls-18{fill:url(#linear-gradient-18);}.cls-19{fill:url(#linear-gradient-19);}.cls-20{fill:url(#linear-gradient-20);}.cls-21{fill:url(#linear-gradient-21);}.cls-22{fill:url(#linear-gradient-22);}.cls-23{fill:url(#linear-gradient-23);}.cls-24{fill:url(#linear-gradient-24);}.cls-25{fill:url(#linear-gradient-25);}.cls-26{fill:url(#linear-gradient-26);}.cls-27{fill:url(#linear-gradient-27);}.cls-28{fill:url(#linear-gradient-28);}.cls-29{fill:url(#linear-gradient-29);}.cls-30{fill:url(#linear-gradient-30);}.cls-31{fill:url(#linear-gradient-31);}.cls-32{fill:url(#linear-gradient-32);}.cls-33{fill:url(#linear-gradient-33);}.cls-34{fill:url(#linear-gradient-34);}.cls-35{fill:url(#linear-gradient-35);}.cls-36{fill:url(#linear-gradient-36);}.cls-37{fill:url(#linear-gradient-37);}.cls-38{fill:url(#linear-gradient-38);}.cls-39{fill:url(#linear-gradient-39);}.cls-40{fill:url(#linear-gradient-40);}.cls-41{fill:url(#linear-gradient-41);}.cls-42{fill:url(#linear-gradient-42);}.cls-43{fill:url(#linear-gradient-43);}.cls-44{fill:url(#linear-gradient-44);}.cls-45{fill:url(#linear-gradient-45);}.cls-46{fill:url(#linear-gradient-46);}.cls-47{fill:url(#linear-gradient-47);}.cls-48{fill:url(#linear-gradient-48);}.cls-49{fill:url(#linear-gradient-49);}.cls-50{fill:url(#linear-gradient-50);}.cls-51{fill:url(#linear-gradient-51);}.cls-52{fill:url(#linear-gradient-52);}.cls-53{fill:url(#linear-gradient-53);}.cls-54{fill:url(#linear-gradient-54);}.cls-55{fill:url(#linear-gradient-55);}.cls-56{fill:url(#linear-gradient-56);}.cls-57{fill:url(#linear-gradient-57);}.cls-58{fill:url(#linear-gradient-58);}.cls-59{fill:url(#linear-gradient-59);}.cls-60{fill:url(#linear-gradient-60);}.cls-61{fill:url(#linear-gradient-61);}.cls-62{fill:url(#linear-gradient-62);}.cls-63{fill:url(#linear-gradient-63);}.cls-64{fill:url(#linear-gradient-64);}.cls-65{fill:url(#linear-gradient-65);}.cls-66{fill:url(#linear-gradient-66);}.cls-67{fill:url(#linear-gradient-67);}.cls-68{fill:url(#linear-gradient-68);}.cls-69{fill:url(#linear-gradient-69);}.cls-70{fill:url(#linear-gradient-70);}.cls-71{fill:url(#linear-gradient-71);}.cls-72{fill:url(#linear-gradient-72);}.cls-73{fill:url(#linear-gradient-73);}.cls-74{fill:url(#linear-gradient-74);}.cls-75{fill:url(#linear-gradient-75);}.cls-76{fill:url(#linear-gradient-76);}.cls-77{fill:url(#linear-gradient-77);}.cls-78{fill:url(#linear-gradient-78);}.cls-79{fill:url(#linear-gradient-79);}.cls-80{fill:url(#linear-gradient-80);}.cls-81{fill:url(#linear-gradient-81);}.cls-82{fill:url(#linear-gradient-82);}.cls-83{fill:url(#linear-gradient-83);}.cls-84{fill:url(#linear-gradient-84);}.cls-85{fill:url(#linear-gradient-85);}.cls-86{fill:url(#linear-gradient-86);}.cls-87{fill:url(#linear-gradient-87);}.cls-88{fill:url(#linear-gradient-88);}.cls-89{fill:url(#linear-gradient-89);}.cls-90{fill:url(#linear-gradient-90);}.cls-91{fill:url(#linear-gradient-91);}.cls-92{fill:url(#linear-gradient-92);}.cls-93{fill:url(#linear-gradient-93);}.cls-94{fill:url(#linear-gradient-94);}.cls-95{fill:url(#linear-gradient-95);}.cls-96{fill:url(#linear-gradient-96);}.cls-97{fill:url(#linear-gradient-97);}.cls-98{fill:url(#linear-gradient-98);}.cls-99{fill:url(#linear-gradient-99);}.cls-100{fill:url(#linear-gradient-100);}.cls-101{fill:url(#linear-gradient-101);}.cls-102{fill:url(#linear-gradient-102);}.cls-103{fill:url(#linear-gradient-103);}.cls-104{fill:url(#linear-gradient-104);}.cls-105{fill:url(#linear-gradient-105);}.cls-106{fill:url(#linear-gradient-106);}.cls-107{fill:url(#linear-gradient-107);}</style><linearGradient id="linear-gradient" x1="1306.6" y1="-194.62" x2="1306.6" y2="-1124.2" gradientTransform="translate(-857.2 1820.99) rotate(0.01)" gradientUnits="userSpaceOnUse"><stop offset="0" stop-color="#c7e8fa"/><stop offset="0.31" stop-color="#47bcda"/><stop offset="0.5" stop-color="#00a3c9"/><stop offset="1" stop-color="#b0dbf2"/></linearGradient><linearGradient id="linear-gradient-2" x1="1699.34" y1="-120.56" x2="1699.34" y2="-1050.14" gradientTransform="translate(-919.85 1521.58)" xlink:href="#linear-gradient"/><linearGradient id="linear-gradient-3" x1="1619.23" y1="478.19" x2="1619.23" y2="-451.39" gradientTransform="translate(-472.97 1402.98)" xlink:href="#linear-gradient"/><linearGradient id="linear-gradient-4" x1="1958.66" y1="605.57" x2="1958.66" y2="-324.01" gradientTransform="matrix(1, 0, 0, 1, -482.31, 1125.52)" xlink:href="#linear-gradient"/><linearGradient id="linear-gradient-5" x1="1725.26" y1="372.16" x2="1725.26" y2="-557.41" gradientTransform="matrix(1, 0, 0, 1, -579.01, 1358.79)" xlink:href="#linear-gradient"/><linearGradient id="linear-gradient-6" x1="2113.72" y1="-16.3" x2="2113.72" y2="-945.88" gradientTransform="matrix(1, 0, 0, 1, -967.41, 1198.34)" xlink:href="#linear-gradient"/><linearGradient id="linear-gradient-7" x1="2433.98" y1="303.96" x2="2433.98" y2="-625.62" gradientTransform="translate(-834.77 878.28) rotate(-0.01)" xlink:href="#linear-gradient"/><linearGradient id="linear-gradient-8" x1="2406.3" y1="798.45" x2="2406.3" y2="-131.13" gradientTransform="translate(-476.99 752.26) rotate(0.01)" xlink:href="#linear-gradient"/><linearGradient id="linear-gradient-9" x1="2785.46" y1="188.63" x2="2785.46" y2="-740.94" gradientTransform="matrix(1, 0, 0, 1, -1019.3, 663.1)" xlink:href="#linear-gradient"/><linearGradient id="linear-gradient-10" x1="2229.49" y1="975.26" x2="2229.49" y2="45.68" gradientTransform="matrix(1, 0, 0, 1, -300.24, 825.92)" xlink:href="#linear-gradient"/><linearGradient id="linear-gradient-11" x1="2735.21" y1="1127.35" x2="2735.21" y2="197.78" gradientTransform="matrix(1, 0, 0, 1, -340.86, 423.98)" xlink:href="#linear-gradient"/><linearGradient id="linear-gradient-12" x1="2593.36" y1="1452.31" x2="2593.36" y2="522.73" gradientTransform="matrix(1, 0, 0, 1, -69.32, 428.46)" xlink:href="#linear-gradient"/><linearGradient id="linear-gradient-13" x1="2925.59" y1="570.94" x2="2925.59" y2="-358.64" gradientTransform="translate(-790 451.83) rotate(0.01)" xlink:href="#linear-gradient"/><linearGradient id="linear-gradient-14" x1="2216.92" y1="-268.78" x2="2216.92" y2="-1198.36" gradientTransform="translate(-1176.14 1199.33) rotate(-0.01)" xlink:href="#linear-gradient"/><linearGradient id="linear-gradient-15" x1="1359.92" y1="218.87" x2="1359.92" y2="-710.71" gradientTransform="translate(-580.38 1662.29)" xlink:href="#linear-gradient"/><linearGradient id="linear-gradient-16" x1="1832.17" y1="-764.66" x2="1832.17" y2="-1694.24" gradientTransform="matrix(1, 0, 0, 1, -1414.26, 1616.27)" xlink:href="#linear-gradient"/><linearGradient id="linear-gradient-17" x1="1419.46" y1="2999.84" x2="1419.46" y2="2070.26" gradientTransform="matrix(0, 1, -1, 0, 3080.01, -1032.72)" xlink:href="#linear-gradient"/><linearGradient id="linear-gradient-18" x1="1652.87" y1="3233.24" x2="1652.87" y2="2303.66" gradientTransform="translate(3313.53 -935.83) rotate(90)" xlink:href="#linear-gradient"/><linearGradient id="linear-gradient-19" x1="1886.27" y1="2999.84" x2="1886.27" y2="2070.26" gradientTransform="matrix(0, 1, -1, 0, 3410.57, -1168.74)" xlink:href="#linear-gradient"/><linearGradient id="linear-gradient-20" x1="2052.46" y1="2609.02" x2="2052.46" y2="1679.44" gradientTransform="translate(3413.11 -1494.39) rotate(89.99)" xlink:href="#linear-gradient"/><linearGradient id="linear-gradient-21" x1="2424.06" y1="2462.05" x2="2424.06" y2="1532.47" gradientTransform="matrix(0, 1, -1, 0, 3632.78, -1707.14)" xlink:href="#linear-gradient"/><linearGradient id="linear-gradient-22" x1="2505.4" y1="2076.58" x2="2505.4" y2="1147" gradientTransform="translate(3577.78 -2003.24) rotate(90)" xlink:href="#linear-gradient"/><linearGradient id="linear-gradient-23" x1="2818.64" y1="2534.28" x2="2818.64" y2="1604.7" gradientTransform="translate(3932.96 -1771.6) rotate(90)" xlink:href="#linear-gradient"/><linearGradient id="linear-gradient-24" x1="2274.74" y1="3388.3" x2="2274.74" y2="2458.72" gradientTransform="translate(3798.86 -1008.07) rotate(90)" xlink:href="#linear-gradient"/><linearGradient id="linear-gradient-25" x1="2058.51" y1="3456.4" x2="2058.51" y2="2526.82" gradientTransform="translate(3665.75 -896.8) rotate(90)" xlink:href="#linear-gradient"/><linearGradient id="linear-gradient-26" x1="2614.17" y1="3260.92" x2="2614.17" y2="2331.34" gradientTransform="translate(4001.4 -1197.76) rotate(90)" xlink:href="#linear-gradient"/><linearGradient id="linear-gradient-27" x1="2760.19" y1="2436.04" x2="2760.19" y2="1506.46" gradientTransform="translate(3862.62 -1824.12) rotate(89.99)" xlink:href="#linear-gradient"/><linearGradient id="linear-gradient-28" x1="2300.08" y1="2230.36" x2="2300.08" y2="1300.78" gradientTransform="translate(3477.3 -1834.6) rotate(90)" xlink:href="#linear-gradient"/><linearGradient id="linear-gradient-29" x1="2640.8" y1="1889.63" x2="2640.8" y2="960.05" gradientTransform="translate(3618.37 -2175.33) rotate(89.99)" xlink:href="#linear-gradient"/><linearGradient id="linear-gradient-30" x1="3087.44" y1="1770.16" x2="3087.44" y2="840.58" gradientTransform="translate(3898.88 -2390.72) rotate(89.99)" xlink:href="#linear-gradient"/><linearGradient id="linear-gradient-31" x1="3244.29" y1="2575.44" x2="3244.29" y2="1645.86" gradientTransform="translate(4246.19 -1867.02) rotate(90)" xlink:href="#linear-gradient"/><linearGradient id="linear-gradient-32" x1="3010.88" y1="2342.04" x2="3010.88" y2="1412.46" gradientTransform="matrix(0, 1, -1, 0, 4012.84, -1963.67)" xlink:href="#linear-gradient"/><linearGradient id="linear-gradient-33" x1="3041.49" y1="2006.61" x2="3041.49" y2="1077.04" gradientTransform="translate(3936.4 -2209.73) rotate(90)" xlink:href="#linear-gradient"/><linearGradient id="linear-gradient-34" x1="3045.93" y1="3083.92" x2="3045.93" y2="2154.34" gradientTransform="matrix(0, 1, -1, 0, 4254.54, -1449.65)" xlink:href="#linear-gradient"/><linearGradient id="linear-gradient-35" x1="3084.11" y1="2740.48" x2="3084.11" y2="2134.23" gradientTransform="matrix(0, 1, -1, 0, 4147.7, -1622.23)" gradientUnits="userSpaceOnUse"><stop offset="0" stop-color="#4c829a"/><stop offset="0.5" stop-color="#002131"/><stop offset="1" stop-color="#3c738a"/></linearGradient><linearGradient id="linear-gradient-36" x1="2992.23" y1="2392.73" x2="2992.23" y2="1786.48" gradientTransform="translate(3980.47 -1841.44) rotate(89.98)" xlink:href="#linear-gradient-35"/><linearGradient id="linear-gradient-37" x1="2737.43" y1="2500.08" x2="2737.43" y2="1893.83" gradientTransform="translate(3833.16 -1689.87) rotate(90.01)" xlink:href="#linear-gradient-35"/><linearGradient id="linear-gradient-38" x1="2451.43" y1="3373.16" x2="2451.43" y2="2766.91" gradientTransform="translate(3885.74 -989.67) rotate(89.99)" xlink:href="#linear-gradient-35"/><linearGradient id="linear-gradient-39" x1="2323.63" y1="-185.86" x2="2323.63" y2="-792.11" gradientTransform="translate(-1722.49 1866.22)" xlink:href="#linear-gradient-35"/><linearGradient id="linear-gradient-40" x1="2209.23" y1="-524.89" x2="2209.23" y2="-1131.13" gradientTransform="translate(-1928.71 2046.4)" xlink:href="#linear-gradient-35"/><linearGradient id="linear-gradient-41" x1="2549.13" y1="-670.33" x2="2549.13" y2="-1276.58" gradientTransform="translate(-2131.1 1848.66)" xlink:href="#linear-gradient-35"/><linearGradient id="linear-gradient-42" x1="2709.75" y1="-1117.97" x2="2709.75" y2="-1724.22" gradientTransform="translate(-2494.43 1866.67) rotate(-0.01)" xlink:href="#linear-gradient-35"/><linearGradient id="linear-gradient-43" x1="3008.42" y1="-930.01" x2="3008.42" y2="-1536.26" gradientTransform="translate(-2449.03 1600.48) rotate(-0.01)" xlink:href="#linear-gradient-35"/><linearGradient id="linear-gradient-44" x1="3241.82" y1="-696.61" x2="3241.82" y2="-1302.85" gradientTransform="translate(-2352.39 1367.12) rotate(-0.01)" xlink:href="#linear-gradient-35"/><linearGradient id="linear-gradient-45" x1="3075.5" y1="-367.61" x2="3075.5" y2="-973.85" gradientTransform="matrix(1, 0, 0, 1, -2071.07, 1388.45)" xlink:href="#linear-gradient-35"/><linearGradient id="linear-gradient-46" x1="2889.94" y1="-114.87" x2="2889.94" y2="-721.12" gradientTransform="translate(-1838.08 1445.49) rotate(-0.01)" xlink:href="#linear-gradient-35"/><linearGradient id="linear-gradient-47" x1="2823.26" y1="418.62" x2="2823.26" y2="-187.63" gradientTransform="matrix(1, 0, 0, 1, -1441.38, 1335.51)" xlink:href="#linear-gradient-35"/><linearGradient id="linear-gradient-48" x1="2605.7" y1="406.33" x2="2605.7" y2="-199.92" gradientTransform="translate(-1386.38 1493.79) rotate(-0.01)" xlink:href="#linear-gradient-35"/><linearGradient id="linear-gradient-49" x1="2961.08" y1="697.9" x2="2961.08" y2="91.65" gradientTransform="translate(-1284.23 1156.21) rotate(0.01)" xlink:href="#linear-gradient-35"/><linearGradient id="linear-gradient-50" x1="3201.09" y1="584.28" x2="3201.09" y2="-21.96" gradientTransform="translate(-1434.92 1020.19)" xlink:href="#linear-gradient-35"/><linearGradient id="linear-gradient-51" x1="3423.63" y1="177.34" x2="3423.63" y2="-428.91" gradientTransform="matrix(1, 0, 0, 1, -1787.89, 980.95)" xlink:href="#linear-gradient-35"/><linearGradient id="linear-gradient-52" x1="3634.35" y1="-33.38" x2="3634.35" y2="-639.63" gradientTransform="translate(-1998.62 894.23) rotate(0.01)" xlink:href="#linear-gradient-35"/><linearGradient id="linear-gradient-53" x1="3822.84" y1="-115.59" x2="3822.84" y2="-721.83" gradientTransform="translate(-2111.9 785.54)" xlink:href="#linear-gradient-35"/><linearGradient id="linear-gradient-54" x1="4085.75" y1="89.74" x2="4085.75" y2="-516.51" gradientTransform="translate(-2043.72 539.5)" xlink:href="#linear-gradient-35"/><linearGradient id="linear-gradient-55" x1="4271.4" y1="332.97" x2="4271.4" y2="-273.27" gradientTransform="translate(-1926.11 337.73) rotate(-0.01)" xlink:href="#linear-gradient-35"/><linearGradient id="linear-gradient-56" x1="4590.84" y1="487.92" x2="4590.84" y2="-118.33" gradientTransform="matrix(1, 0, 0, 1, -1910.07, 64.93)" xlink:href="#linear-gradient-35"/><linearGradient id="linear-gradient-57" x1="4622.57" y1="874.64" x2="4622.57" y2="268.39" gradientTransform="translate(-1645.94 -69.97)" xlink:href="#linear-gradient-35"/><linearGradient id="linear-gradient-58" x1="4703.9" y1="955.98" x2="4703.9" y2="349.73" gradientTransform="translate(-1612.05 -152.79) rotate(0.02)" xlink:href="#linear-gradient-35"/><linearGradient id="linear-gradient-59" x1="4423.47" y1="1114.53" x2="4423.47" y2="508.28" gradientTransform="translate(-1417.98 0.39)" xlink:href="#linear-gradient-35"/><linearGradient id="linear-gradient-60" x1="4150.03" y1="869.6" x2="4150.03" y2="263.35" gradientTransform="matrix(1, 0, 0, 1, -1510.91, 264.18)" xlink:href="#linear-gradient-35"/><linearGradient id="linear-gradient-61" x1="4265.67" y1="1394.22" x2="4265.67" y2="787.97" gradientTransform="translate(-1173.44 27.97) rotate(0.03)" xlink:href="#linear-gradient-35"/><linearGradient id="linear-gradient-62" x1="3903.41" y1="1237.23" x2="3903.41" y2="630.99" gradientTransform="translate(-1179.38 334.28) rotate(-0.03)" xlink:href="#linear-gradient-35"/><linearGradient id="linear-gradient-63" x1="3814.55" y1="809.74" x2="3814.55" y2="203.5" gradientTransform="translate(-1455.08 519.71) rotate(0.01)" xlink:href="#linear-gradient-35"/><linearGradient id="linear-gradient-64" x1="3655.54" y1="734.6" x2="3655.54" y2="128.35" gradientTransform="translate(-1461.58 653.55) rotate(0.02)" xlink:href="#linear-gradient-35"/><linearGradient id="linear-gradient-65" x1="3396.15" y1="779.34" x2="3396.15" y2="173.1" gradientTransform="matrix(1, 0, 0, 1, -1354.04, 824.54)" xlink:href="#linear-gradient-35"/><linearGradient id="linear-gradient-66" x1="3342.66" y1="1079.47" x2="3342.66" y2="473.23" gradientTransform="matrix(1, 0, 0, 1, -1126.09, 774.47)" xlink:href="#linear-gradient-35"/><linearGradient id="linear-gradient-67" x1="3565.45" y1="1160.81" x2="3565.45" y2="554.57" gradientTransform="matrix(1, 0, 0, 1, -1133.98, 593.72)" xlink:href="#linear-gradient-35"/><linearGradient id="linear-gradient-68" x1="3733.99" y1="1344.77" x2="3733.99" y2="738.52" gradientTransform="matrix(1, 0, 0, 1, -1053.08, 419.99)" xlink:href="#linear-gradient-35"/><linearGradient id="linear-gradient-69" x1="3727.76" y1="340.01" x2="3727.76" y2="-266.23" gradientTransform="translate(-1761.89 718.81) rotate(0.01)" xlink:href="#linear-gradient-35"/><linearGradient id="linear-gradient-70" x1="2463.79" y1="2666.4" x2="2463.79" y2="2060.16" gradientTransform="translate(3687.13 -1493.24) rotate(89.98)" xlink:href="#linear-gradient-35"/><linearGradient id="linear-gradient-71" x1="2595.79" y1="3050.7" x2="2595.79" y2="2444.46" gradientTransform="translate(3893.33 -1259.92) rotate(89.99)" xlink:href="#linear-gradient-35"/><linearGradient id="linear-gradient-72" x1="2320.73" y1="3158.95" x2="2320.73" y2="2552.71" gradientTransform="matrix(0, 1, -1, 0, 3730.61, -1102.81)" xlink:href="#linear-gradient-35"/><linearGradient id="linear-gradient-73" x1="2029.59" y1="3100.6" x2="2029.59" y2="2494.35" gradientTransform="translate(3508.06 -1058.3) rotate(90)" xlink:href="#linear-gradient-35"/><linearGradient id="linear-gradient-74" x1="1639.4" y1="3079.76" x2="1639.4" y2="2473.51" gradientTransform="translate(3226.05 -958.76) rotate(90)" xlink:href="#linear-gradient-35"/><linearGradient id="linear-gradient-75" x1="1898.57" y1="3338.94" x2="1898.57" y2="2732.69" gradientTransform="translate(3485.16 -851.51) rotate(90)" xlink:href="#linear-gradient-35"/><linearGradient id="linear-gradient-76" x1="1741.63" y1="2617.62" x2="1741.63" y2="2011.37" gradientTransform="translate(3163.29 -1315.07) rotate(90.01)" xlink:href="#linear-gradient-35"/><linearGradient id="linear-gradient-77" x1="1912.58" y1="2446.67" x2="1912.58" y2="1840.42" gradientTransform="translate(3233.79 -1486.43) rotate(90)" xlink:href="#linear-gradient-35"/><linearGradient id="linear-gradient-78" x1="2036.97" y1="2266.92" x2="2036.97" y2="1660.68" gradientTransform="matrix(0, 1, -1, 0, 3269.39, -1649.68)" xlink:href="#linear-gradient-35"/><linearGradient id="linear-gradient-79" x1="2284.05" y1="2486.66" x2="2284.05" y2="1880.41" gradientTransform="matrix(0, 1, -1, 0, 3508.96, -1566.19)" xlink:href="#linear-gradient-35"/><linearGradient id="linear-gradient-80" x1="2322.58" y1="1900.82" x2="2322.58" y2="1294.58" gradientTransform="translate(3363.42 -1992.76) rotate(89.99)" xlink:href="#linear-gradient-35"/><linearGradient id="linear-gradient-81" x1="2577.75" y1="2036.26" x2="2577.75" y2="1430.02" gradientTransform="translate(3583.48 -1971.75) rotate(89.99)" xlink:href="#linear-gradient-35"/><linearGradient id="linear-gradient-82" x1="2979.6" y1="1953.09" x2="2979.6" y2="1346.84" gradientTransform="translate(3843.72 -2147.96) rotate(90)" xlink:href="#linear-gradient-35"/><linearGradient id="linear-gradient-83" x1="2685.79" y1="1729.24" x2="2685.79" y2="1122.99" gradientTransform="matrix(0, 1, -1, 0, 3569.93, -2220.43)" xlink:href="#linear-gradient-35"/><linearGradient id="linear-gradient-84" x1="2860.95" y1="1498.3" x2="2860.95" y2="892.06" gradientTransform="translate(3627.11 -2434.58) rotate(90.01)" xlink:href="#linear-gradient-35"/><linearGradient id="linear-gradient-85" x1="3118.53" y1="1403.4" x2="3118.53" y2="797.15" gradientTransform="translate(3780.52 -2577.49) rotate(89.99)" xlink:href="#linear-gradient-35"/><linearGradient id="linear-gradient-86" x1="3311.76" y1="1351.62" x2="3311.76" y2="745.38" gradientTransform="matrix(0, 1, -1, 0, 3902.89, -2670.39)" xlink:href="#linear-gradient-35"/><linearGradient id="linear-gradient-87" x1="3301.52" y1="2040.84" x2="3301.52" y2="1434.6" gradientTransform="matrix(0, 1, -1, 0, 4097.51, -2179.95)" xlink:href="#linear-gradient-35"/><linearGradient id="linear-gradient-88" x1="3428.84" y1="2168.16" x2="3428.84" y2="1561.92" gradientTransform="matrix(0, 1, -1, 0, 4224.97, -2127.13)" xlink:href="#linear-gradient-35"/><linearGradient id="linear-gradient-89" x1="3500.93" y1="2612.37" x2="3500.93" y2="2006.12" gradientTransform="translate(4405.57 -1834.39) rotate(90)" xlink:href="#linear-gradient-35"/><linearGradient id="linear-gradient-90" x1="3649.85" y1="2478.88" x2="3649.85" y2="1872.63" gradientTransform="matrix(0, 1, -1, 0, 4471.01, -1972.86)" xlink:href="#linear-gradient-35"/><linearGradient id="linear-gradient-91" x1="3768.35" y1="1991.32" x2="3768.35" y2="1385.08" gradientTransform="matrix(0, 1, -1, 0, 4412.64, -2351.94)" xlink:href="#linear-gradient-35"/><linearGradient id="linear-gradient-92" x1="3984.95" y1="1965.68" x2="3984.95" y2="1359.43" gradientTransform="translate(4556.89 -2434.09) rotate(89.98)" xlink:href="#linear-gradient-35"/><linearGradient id="linear-gradient-93" x1="3804.35" y1="1629.98" x2="3804.35" y2="1023.73" gradientTransform="translate(4333.59 -2617.53) rotate(90.02)" xlink:href="#linear-gradient-35"/><linearGradient id="linear-gradient-94" x1="3605.68" y1="1524.52" x2="3605.68" y2="918.27" gradientTransform="matrix(0, 1, -1, 0, 4159.63, -2634.8)" xlink:href="#linear-gradient-35"/><linearGradient id="linear-gradient-95" x1="3493.24" y1="1196.98" x2="3493.24" y2="590.73" gradientTransform="translate(3985.45 -2833.04) rotate(90)" xlink:href="#linear-gradient-35"/><linearGradient id="linear-gradient-96" x1="3303.05" y1="2521.54" x2="3303.05" y2="1915.29" gradientTransform="matrix(0, 1, -1, 0, 4238.92, -1840.74)" xlink:href="#linear-gradient-35"/><linearGradient id="linear-gradient-97" x1="3438.67" y1="2543.05" x2="3438.67" y2="1613.47" gradientTransform="matrix(0, 1, -1, 0, 4374.15, -1946.86)" xlink:href="#linear-gradient"/><linearGradient id="linear-gradient-98" x1="3714.6" y1="2160.49" x2="3714.6" y2="1230.91" gradientTransform="matrix(0, 1, -1, 0, 4457.21, -2298.18)" xlink:href="#linear-gradient"/><linearGradient id="linear-gradient-99" x1="3456.19" y1="1672.1" x2="3456.19" y2="742.52" gradientTransform="translate(4131.69 -2567.75) rotate(90)" xlink:href="#linear-gradient"/><linearGradient id="linear-gradient-100" x1="3385.35" y1="1556.11" x2="3385.35" y2="626.53" gradientTransform="translate(4046.85 -2629.28) rotate(89.99)" xlink:href="#linear-gradient"/><linearGradient id="linear-gradient-101" x1="2885.52" y1="1453.3" x2="2885.52" y2="523.72" gradientTransform="translate(3664.04 -2555.34) rotate(90)" xlink:href="#linear-gradient"/><linearGradient id="linear-gradient-102" x1="3270.16" y1="1111.63" x2="3270.16" y2="182.05" gradientTransform="matrix(1, 0, 0, 1, -508.66, 50.36)" xlink:href="#linear-gradient"/><linearGradient id="linear-gradient-103" x1="2982.43" y1="1629.34" x2="2982.43" y2="699.76" gradientTransform="translate(-58.16 101.64) rotate(0.01)" xlink:href="#linear-gradient"/><linearGradient id="linear-gradient-104" x1="2500.1" y1="-177.22" x2="2500.1" y2="-1106.79" gradientTransform="translate(-1194.46 971.86) rotate(0.01)" xlink:href="#linear-gradient"/><linearGradient id="linear-gradient-105" x1="3167.28" y1="1255.3" x2="3167.28" y2="325.72" gradientTransform="translate(-376.75 80.19) rotate(0.01)" xlink:href="#linear-gradient"/><linearGradient id="linear-gradient-106" x1="2651.92" y1="-25.4" x2="2651.92" y2="-954.98" gradientTransform="translate(-1131.49 820.45)" xlink:href="#linear-gradient"/><linearGradient id="linear-gradient-107" x1="3457.92" y1="972.23" x2="3457.92" y2="42.65" gradientTransform="translate(-662.22 -41.56) rotate(-0.01)" xlink:href="#linear-gradient"/></defs><title>底纹1</title><g id="图层_2" data-name="图层 2"><g id="图层_1-2" data-name="图层 1"><rect class="cls-1" x="447.42" y="696.92" width="4.04" height="929.57" transform="translate(-689.85 658.15) rotate(-45.01)"/><rect class="cls-2" x="777.5" y="471.57" width="4.04" height="929.57" transform="translate(-433.8 825.54) rotate(-45)"/><rect class="cls-3" x="1144.23" y="951.59" width="4.04" height="929.57" transform="translate(-665.8 1225.37) rotate(-45)"/><rect class="cls-4" x="1474.31" y="801.66" width="4.04" height="929.57" transform="translate(-463.09 1414.99) rotate(-45)"/><rect class="cls-5" x="1144.23" y="801.65" width="4.04" height="929.57" transform="translate(-559.79 1181.72) rotate(-45.01)"/><rect class="cls-6" x="1144.23" y="252.29" width="4.04" height="929.57" transform="translate(-171.35 1020.43) rotate(-44.99)"/><rect class="cls-7" x="1597.14" y="252.29" width="4.04" height="929.57" transform="translate(-38.76 1340.54) rotate(-44.99)"/><rect class="cls-8" x="1927.22" y="621.51" width="4.04" height="929.57" transform="translate(-202.97 1682.68) rotate(-45.01)"/><rect class="cls-9" x="1764.12" y="-77.79" width="4.04" height="929.57" transform="translate(243.66 1362.23) rotate(-45)"/><rect class="cls-10" x="1927.22" y="871.56" width="4.04" height="929.57" transform="translate(-379.89 1755.55) rotate(-45)"/><rect class="cls-11" x="2392.35" y="621.51" width="4.04" height="929.57" transform="translate(-66.91 2011.03) rotate(-44.99)"/><rect class="cls-12" x="2521.83" y="951.59" width="4.04" height="929.57" transform="translate(-262.19 2199.92) rotate(-45.01)"/><rect class="cls-13" x="2133.54" y="93.45" width="4.04" height="929.57" transform="translate(230.85 1673.74) rotate(-45.01)"/><rect class="cls-14" x="1038.67" y="0.79" width="4.04" height="929.57" transform="translate(-24.43 872.15) rotate(-44.99)"/><rect class="cls-15" x="777.5" y="951.59" width="4.04" height="929.57" transform="translate(-773.22 966.05) rotate(-45)"/><rect class="cls-16" x="415.98" y="-77.79" width="4.04" height="929.57" transform="translate(-151.21 408.97) rotate(-45.01)"/><rect class="cls-17" x="80.35" y="384.97" width="929.57" height="4.04" transform="translate(-113.99 498.75) rotate(-44.99)"/><rect class="cls-18" x="80.35" y="715.05" width="929.57" height="4.04" transform="translate(-347.38 595.48) rotate(-45)"/><rect class="cls-19" x="410.43" y="715.05" width="929.57" height="4.04" transform="translate(-250.68 829.09) rotate(-45.01)"/><rect class="cls-20" x="804.3" y="556.22" width="929.57" height="4.04" transform="translate(-23.07 1060.77) rotate(-44.99)"/><rect class="cls-21" x="1170.97" y="715.05" width="929.57" height="4.04" transform="translate(-28 1366.53) rotate(-44.99)"/><rect class="cls-22" x="1501.05" y="500" width="929.57" height="4.04" transform="translate(220.87 1537.21) rotate(-45)"/><rect class="cls-23" x="1398.91" y="1045.13" width="929.57" height="4.04" transform="translate(-194.63 1624.39) rotate(-45)"/><rect class="cls-24" x="410.43" y="1264.42" width="929.57" height="4.04" transform="translate(-639.18 989.91) rotate(-45)"/><rect class="cls-25" x="209.39" y="1159.68" width="929.57" height="4.04" transform="translate(-623.98 816.97) rotate(-45)"/><rect class="cls-26" x="740.51" y="1414.36" width="929.57" height="4.04" transform="translate(-648.51 1267.12) rotate(-45)"/><rect class="cls-27" x="1427.04" y="934.34" width="929.57" height="4.04" transform="translate(-108.11 1611.66) rotate(-44.99)"/><rect class="cls-28" x="1247.13" y="463.55" width="929.57" height="4.04" transform="translate(172.14 1346.76) rotate(-45)"/><rect class="cls-29" x="1728.99" y="463.55" width="929.57" height="4.04" transform="translate(313.22 1687.43) rotate(-44.99)"/><rect class="cls-30" x="2129.28" y="694.89" width="929.57" height="4.04" transform="translate(266.76 2038) rotate(-44.99)"/><rect class="cls-31" x="1670.77" y="1375.22" width="929.57" height="4.04" transform="translate(-348.36 1913.45) rotate(-45)"/><rect class="cls-32" x="1670.77" y="1045.13" width="929.57" height="4.04" transform="translate(-114.95 1816.81) rotate(-45)"/><rect class="cls-33" x="1929.59" y="829.6" width="929.57" height="4.04" transform="translate(113.33 1936.81) rotate(-45)"/><rect class="cls-34" x="1170.97" y="1594.5" width="929.57" height="4.04" transform="translate(-649.81 1624.02) rotate(-44.99)"/><rect class="cls-35" x="1407.78" y="1461.27" width="606.24" height="2.02" transform="translate(-532.91 1637.69) rotate(-44.99)"/><rect class="cls-36" x="1588.7" y="1150.4" width="606.24" height="2.02" transform="translate(-260.23 1674.28) rotate(-44.98)"/><rect class="cls-37" x="1332.63" y="1046.14" width="606.24" height="2.02" transform="translate(-261.28 1463.69) rotate(-45.01)"/><rect class="cls-38" x="513.05" y="1461.27" width="606.24" height="2.02" transform="translate(-794.86 1005.13) rotate(-44.99)"/><rect class="cls-39" x="600.11" y="1074.12" width="2.02" height="606.24" transform="translate(-797.79 828.44) rotate(-45)"/><rect class="cls-40" x="279.5" y="915.28" width="2.02" height="606.24" transform="translate(-779.38 555.21) rotate(-45)"/><rect class="cls-41" x="416.99" y="572.1" width="2.02" height="606.24" transform="translate(-496.44 551.92) rotate(-45)"/><rect class="cls-42" x="214.04" y="141.99" width="2.02" height="606.24" transform="translate(-251.72 282.35) rotate(-44.99)"/><rect class="cls-43" x="558.14" y="63.71" width="2.02" height="606.24" transform="translate(-95.64 502.7) rotate(-44.99)"/><rect class="cls-44" x="888.22" y="63.71" width="2.02" height="606.24" transform="translate(0.99 736.07) rotate(-44.99)"/><rect class="cls-45" x="1003.25" y="413.95" width="2.02" height="606.24" transform="translate(-212.95 919.89) rotate(-44.99)"/><rect class="cls-46" x="1050.74" y="723.88" width="2.02" height="606.24" transform="translate(-418.15 1044.25) rotate(-44.99)"/><rect class="cls-47" x="1380.82" y="1148.25" width="2.02" height="606.24" transform="translate(-621.55 1402.47) rotate(-45.01)"/><rect class="cls-48" x="1218.3" y="1293.4" width="2.02" height="606.24" transform="translate(-771.74 1329.43) rotate(-44.99)"/><rect class="cls-49" x="1675.76" y="1248.28" width="2.02" height="606.24" transform="translate(-605.88 1640.37) rotate(-45.01)"/><rect class="cls-50" x="1765.13" y="998.23" width="2.02" height="606.24" transform="translate(-402.9 1630.01) rotate(-45)"/><rect class="cls-51" x="1634.74" y="553.12" width="2.02" height="606.24" transform="translate(-126.18 1407.99) rotate(-45.02)"/><rect class="cls-52" x="1634.74" y="255.12" width="2.02" height="606.24" transform="translate(84.47 1320.37) rotate(-45.01)"/><rect class="cls-53" x="1709.89" y="63.71" width="2.02" height="606.24" transform="translate(241.72 1317.24) rotate(-45)"/><rect class="cls-54" x="2040.99" y="22.99" width="2.02" height="606.24" transform="translate(367.49 1539.42) rotate(-45)"/><rect class="cls-55" x="2344.25" y="63.71" width="2.02" height="606.24" transform="translate(427.27 1765.46) rotate(-44.99)"/><rect class="cls-56" x="2679.68" y="-52.6" width="2.02" height="606.24" transform="translate(608.31 1969.27) rotate(-45.01)"/><rect class="cls-57" x="2975.57" y="198.42" width="2.02" height="606.24" transform="translate(517.18 2251.66) rotate(-45)"/><rect class="cls-58" x="3090.6" y="198.42" width="2.02" height="606.24" transform="translate(551.45 2333.79) rotate(-45.02)"/><rect class="cls-59" x="3004.41" y="508.82" width="2.02" height="606.24" transform="translate(306.19 2363.06) rotate(-45)"/><rect class="cls-60" x="2637.87" y="528.98" width="2.02" height="606.24" transform="translate(184.97 2110.55) rotate(-45.02)"/><rect class="cls-61" x="3090.6" y="818.17" width="2.02" height="606.24" transform="translate(113.37 2516.08) rotate(-45.03)"/><rect class="cls-62" x="2723.45" y="963.32" width="2.02" height="606.24" transform="translate(-98.05 2296.01) rotate(-44.97)"/><rect class="cls-63" x="2358.34" y="723.88" width="2.02" height="606.24" transform="translate(-34.99 1969.53) rotate(-45.01)"/><rect class="cls-64" x="2192.76" y="783.18" width="2.02" height="606.24" transform="translate(-125.31 1870.21) rotate(-45.02)"/><rect class="cls-65" x="2040.99" y="998.23" width="2.02" height="606.24" transform="translate(-322.02 1825.48) rotate(-45.01)"/><rect class="cls-66" x="2215.38" y="1248.28" width="2.02" height="606.24" transform="translate(-447.76 2022.09) rotate(-45.01)"/><rect class="cls-67" x="2430.44" y="1148.25" width="2.02" height="606.24" transform="translate(-314.13 2144.37) rotate(-45)"/><rect class="cls-68" x="2679.68" y="1159.16" width="2.02" height="606.24" transform="translate(-248.68 2324.34) rotate(-45.01)"/><rect class="cls-69" x="1964.82" y="453.1" width="2.02" height="606.24" transform="translate(41.17 1611.81) rotate(-45.01)"/><rect class="cls-70" x="1021.53" y="970.26" width="606.24" height="2.02" transform="translate(-298.89 1220.64) rotate(-44.98)"/><rect class="cls-71" x="843.13" y="1335.34" width="606.24" height="2.02" transform="translate(-609.19 1201.61) rotate(-44.99)"/><rect class="cls-72" x="572.09" y="1217.39" width="606.24" height="2.02" transform="translate(-605.15 975.47) rotate(-44.99)"/><rect class="cls-73" x="407.49" y="970.26" width="606.24" height="2.02" transform="translate(-478.66 786.96) rotate(-45)"/><rect class="cls-74" x="146.32" y="679.62" width="606.24" height="2.02" transform="translate(-349.64 517.15) rotate(-45)"/><rect class="cls-75" x="146.32" y="1046.15" width="606.24" height="2.02" transform="translate(-608.8 624.47) rotate(-45)"/><rect class="cls-76" x="545.39" y="425.13" width="606.24" height="2.02" transform="translate(-52.75 724.96) rotate(-45.01)"/><rect class="cls-77" x="787.15" y="425.13" width="606.24" height="2.02" transform="translate(18.01 895.75) rotate(-45)"/><rect class="cls-78" x="1002.2" y="385.98" width="606.24" height="2.02" transform="translate(108.77 1036.52) rotate(-45.01)"/><rect class="cls-79" x="1021.53" y="716.06" width="606.24" height="2.02" transform="translate(-118.92 1147.2) rotate(-45.02)"/><rect class="cls-80" x="1463.02" y="329.07" width="606.24" height="2.02" transform="translate(283.71 1345.27) rotate(-44.99)"/><rect class="cls-81" x="1547.68" y="605.27" width="606.24" height="2.02" transform="translate(113.23 1485.99) rotate(-44.99)"/><rect class="cls-82" x="1890.65" y="830.61" width="606.24" height="2.02" transform="translate(54.5 1794.8) rotate(-45)"/><rect class="cls-83" x="1841.17" y="464.56" width="606.24" height="2.02" transform="translate(298.63 1652.28) rotate(-44.99)"/><rect class="cls-84" x="2128.33" y="425.13" width="606.24" height="2.02" transform="translate(411.08 1844.46) rotate(-45.01)"/><rect class="cls-85" x="2377.57" y="540.15" width="606.24" height="2.02" transform="translate(402.28 2053.72) rotate(-44.99)"/><rect class="cls-86" x="2550.81" y="640.18" width="606.24" height="2.02" transform="translate(382.73 2206.18) rotate(-45.01)"/><rect class="cls-87" x="2056.23" y="1120.28" width="606.24" height="2.02" transform="translate(-101.72 1997.07) rotate(-45.01)"/><rect class="cls-88" x="2056.23" y="1300.34" width="606.24" height="2.02" transform="translate(-229.03 2049.92) rotate(-45.01)"/><rect class="cls-89" x="1793.1" y="1665.42" width="606.24" height="2.02" transform="translate(-564.36 1970.43) rotate(-45)"/><rect class="cls-90" x="1992.79" y="1676.32" width="606.24" height="2.02" transform="translate(-513.67 2114.24) rotate(-44.99)"/><rect class="cls-91" x="2421.34" y="1415.37" width="606.24" height="2.02" transform="translate(-203.56 2341.33) rotate(-45)"/><rect class="cls-92" x="2592.62" y="1550.39" width="606.24" height="2.02" transform="translate(-249.19 2500.89) rotate(-44.98)"/><rect class="cls-93" x="2702.3" y="1185.31" width="606.24" height="2.02" transform="translate(41.86 2473.66) rotate(-45.02)"/><rect class="cls-94" x="2636.39" y="970.26" width="606.24" height="2.02" transform="translate(173.68 2362.06) rotate(-44.98)"/><rect class="cls-95" x="2788.49" y="659.15" width="606.24" height="2.02" transform="translate(438.71 2379.45) rotate(-45)"/><rect class="cls-96" x="1717.41" y="1461.27" width="606.24" height="2.02" transform="translate(-442.19 1857.02) rotate(-45)"/><rect class="cls-97" x="1831.13" y="1489.76" width="929.57" height="4.04" transform="translate(-382.39 2060.39) rotate(-45)"/><rect class="cls-98" x="2296.74" y="1414.36" width="929.57" height="4.04" transform="translate(-192.7 2367.54) rotate(-45)"/><rect class="cls-99" x="2459.36" y="886.3" width="929.57" height="4.04" transform="translate(228.43 2328.05) rotate(-45)"/><rect class="cls-100" x="2491.29" y="754.2" width="929.57" height="4.04" transform="translate(330.84 2311.34) rotate(-44.99)"/><rect class="cls-101" x="2210.56" y="328.06" width="929.57" height="4.04" transform="translate(550.3 1988.58) rotate(-45)"/><rect class="cls-102" x="2759.51" y="232.13" width="4.04" height="929.57" transform="translate(315.91 2156.6) rotate(-44.99)"/><rect class="cls-103" x="2922.13" y="801.65" width="4.04" height="929.57" transform="translate(-38.94 2438.87) rotate(-45.01)"/><rect class="cls-104" x="1303.65" y="-134.7" width="4.04" height="929.57" transform="translate(149.08 1020.03) rotate(-45.01)"/><rect class="cls-105" x="2788.35" y="406.46" width="4.04" height="929.57" transform="translate(201.45 2228.72) rotate(-45.01)"/><rect class="cls-106" x="1518.35" y="-134.7" width="4.04" height="929.57" transform="translate(211.85 1171.65) rotate(-45)"/><rect class="cls-107" x="2793.7" y="0.79" width="4.04" height="929.57" transform="translate(489.49 2113.03) rotate(-44.99)"/></g></g></svg>