<?xml version="1.0" encoding="iso-8859-1"?>
<!-- Generator: Adobe Illustrator 18.1.1, SVG Export Plug-In . SVG Version: 6.00 Build 0)  -->
<svg xmlns="http://www.w3.org/2000/svg" xmlns:xlink="http://www.w3.org/1999/xlink" version="1.1" id="Capa_1" x="0px" y="0px" viewBox="0 0 534.902 534.902" style="enable-background:new 0 0 534.902 534.902;" xml:space="preserve" width="512px" height="512px">
<g>
	<g>
		<path d="M115.346,92.637c3.785,3.586,5.678,8.168,5.678,13.746v409.394c0,5.18-1.893,9.662-5.678,13.447    c-3.785,3.782-8.268,5.678-13.447,5.678s-9.562-1.896-13.148-5.678c-3.586-3.785-5.379-8.271-5.379-13.447V106.382    c0-5.578,1.793-10.16,5.379-13.746c3.586-3.586,7.969-5.378,13.148-5.378C107.079,87.258,111.561,89.051,115.346,92.637z M101.9,0    c-8.766,0-16.337,3.187-22.711,9.562s-9.562,14.045-9.562,23.01s3.187,16.636,9.562,23.01s13.945,9.562,22.711,9.562    s16.337-3.187,22.711-9.562s9.562-14.045,9.562-23.01s-3.187-16.636-9.562-23.01S110.666,0,101.9,0z M427.622,121.024    c-12.75,4.184-25.6,5.479-38.549,3.885s-25.201-4.383-36.756-8.367c-11.556-3.984-24.306-9.562-38.25-16.734    c-32.67-19.922-62.554-29.583-89.648-28.986c-27.094,0.597-51.598,10.259-73.512,28.986l-0.001,217.549    c6.774-4.781,13.348-8.965,19.723-12.551c6.375-3.589,13.049-6.076,20.021-7.474c6.972-1.395,13.148-2.688,18.527-3.885    s11.854-1.295,19.424-0.299s13.447,1.692,17.631,2.092c4.184,0.398,10.26,1.891,18.229,4.482c7.97,2.59,13.448,4.383,16.437,5.379    c2.985,0.996,8.765,3.086,17.332,6.272c8.565,3.189,13.846,5.183,15.838,5.979c59.766,30.278,110.168,30.278,151.207,0V99.807    C452.923,109.768,440.372,116.84,427.622,121.024z" fill="#FFFFFF"/>
	</g>
</g>
<g>
</g>
<g>
</g>
<g>
</g>
<g>
</g>
<g>
</g>
<g>
</g>
<g>
</g>
<g>
</g>
<g>
</g>
<g>
</g>
<g>
</g>
<g>
</g>
<g>
</g>
<g>
</g>
<g>
</g>
</svg>
