<?xml version="1.0" encoding="iso-8859-1"?>
<!-- Generator: Adobe Illustrator 19.0.0, SVG Export Plug-In . SVG Version: 6.00 Build 0)  -->
<svg xmlns="http://www.w3.org/2000/svg" xmlns:xlink="http://www.w3.org/1999/xlink" version="1.1" id="Capa_1" x="0px" y="0px" viewBox="0 0 504.429 504.429" style="enable-background:new 0 0 504.429 504.429;" xml:space="preserve" width="512px" height="512px">
<g>
	<g>
		<g>
			<path d="M281.836,402.922c-1.441-5.377-5.641-9.577-11.018-11.018s-11.114,0.096-15.051,4.033L238.3,413.401l-0.015,0.018     l-29.157,29.152c-6.056,6.092-6.05,15.934,0.014,22.018c6.091,6.071,15.945,6.071,22.036,0l46.625-46.616     C281.74,414.036,283.277,408.299,281.836,402.922z" fill="#FFFFFF"/>
			<path d="M137.947,291.044c-9.303-9.303-24.385-9.302-33.688,0l-34.964,34.964c-9.286,9.31-9.286,24.378,0,33.688     c9.426,9,24.262,9,33.688,0l34.964-34.964C147.249,315.43,147.249,300.347,137.947,291.044z" fill="#FFFFFF"/>
			<path d="M184.566,337.66c-9.304-9.303-24.388-9.303-33.691,0.001l-34.964,34.964c-9.286,9.313-9.286,24.383,0,33.696     c9.292,9.273,24.333,9.289,33.645,0.035l35.011-35.006C193.87,362.047,193.87,346.963,184.566,337.66z" fill="#FFFFFF"/>
			<path d="M225.356,378.439c-6.089-6.08-15.954-6.073-22.034,0.016l-5.826,5.824l-0.005,0.006l-34.964,34.964l-0.042,0.035     l-5.788,5.787c-6.071,6.091-6.071,15.945,0,22.036c6.091,6.072,15.945,6.072,22.036,0l17.468-17.464l0.015-0.018l29.157-29.151     C231.452,394.385,231.445,384.52,225.356,378.439z" fill="#FFFFFF"/>
			<path d="M440.964,221.116c-1.715-1.714-2.679-4.04-2.679-6.464c0-2.425,0.964-4.75,2.679-6.464l63.464-63.464L389.152,29.455     l-56.991,57l5.187,5.187c3.57,3.57,3.57,9.358,0,12.929s-9.358,3.57-12.929,0L312.768,92.92c-15.746-15.726-41.254-15.726-57,0     l-87.411,87.402c-4.481,4.462-7,10.525-7,16.848c0,6.324,2.519,12.387,7,16.848c9.426,9,24.262,9,33.687,0l64.08-64.08     l0.018-0.027l0.027-0.018l23.286-23.286c2.309-2.309,5.676-3.211,8.83-2.366s5.619,3.31,6.464,6.464     c0.845,3.155-0.057,6.521-2.366,8.83l-16.844,16.844l144.404,144.411l16.85-16.844c15.71-15.753,15.71-41.247,0-57     L440.964,221.116z" fill="#FFFFFF"/>
			<path d="M284.268,437.366l-22.038,22.033l11.02,11.021c6.091,6.071,15.945,6.071,22.036,0h0.001     c6.063-6.099,6.059-15.951-0.009-22.045L284.268,437.366z" fill="#FFFFFF"/>
			<path d="M272.612,169.308l-57.638,57.638c-16.451,16.412-43.087,16.396-59.517-0.037c-16.43-16.433-16.443-43.069-0.028-59.517     l78.042-78.042c-14.579-5.236-30.87-1.578-41.81,9.39c-1.714,1.715-4.039,2.679-6.464,2.679c-2.425,0-4.75-0.964-6.464-2.679     l-63.455-63.464L0,150.554l63.447,63.446l0.027,0.018c1.591,1.623,2.515,3.783,2.589,6.054c0.007,0.14,0.08,0.271,0.08,0.411     c0.004,2.428-0.96,4.757-2.679,6.472l-5.83,5.821c-15.71,15.749-15.71,41.242,0,56.991l11.022,11.022l22.674-22.674     c12.661-12.701,31.993-15.954,48.114-8.096c16.121,7.857,25.469,25.089,23.265,42.887c12.204-1.587,24.484,2.308,33.542,10.638     s13.966,20.242,13.404,32.536c16.581-2.557,32.46,7.668,36.993,23.82c12.754-9.599,30.494-8.927,42.485,1.609     c11.991,10.536,14.939,28.043,7.06,41.925l29.502,29.502c3.938,3.935,9.676,5.47,15.052,4.027     c5.377-1.443,9.575-5.645,11.013-11.022c1.439-5.378-0.101-11.114-4.039-15.049l-5.821-5.821l-22.866-21.848     c-3.649-3.491-3.777-9.28-0.286-12.929c3.491-3.649,9.28-3.777,12.929-0.286L354.688,412c9.378,9.2,24.375,9.264,33.83,0.143     c4.481-4.46,7-10.522,7-16.844c0-6.322-2.519-12.384-7-16.844l-75.75-75.759c-3.57-3.57-3.57-9.358,0-12.929     c3.57-3.57,9.358-3.57,12.929,0l75.75,75.759c9.31,9.286,24.378,9.286,33.688,0v0c4.481-4.46,7-10.522,7-16.844     c0-6.322-2.519-12.384-7-16.844L272.612,169.308z" fill="#FFFFFF"/>
		</g>
	</g>
</g>
<g>
</g>
<g>
</g>
<g>
</g>
<g>
</g>
<g>
</g>
<g>
</g>
<g>
</g>
<g>
</g>
<g>
</g>
<g>
</g>
<g>
</g>
<g>
</g>
<g>
</g>
<g>
</g>
<g>
</g>
</svg>
