<?xml version="1.0" encoding="iso-8859-1"?>
<!-- Generator: Adobe Illustrator 19.0.0, SVG Export Plug-In . SVG Version: 6.00 Build 0)  -->
<svg xmlns="http://www.w3.org/2000/svg" xmlns:xlink="http://www.w3.org/1999/xlink" version="1.1" id="Layer_1" x="0px" y="0px" viewBox="0 0 512 512" style="enable-background:new 0 0 512 512;" xml:space="preserve" width="512px" height="512px">
<g>
	<g>
		<path d="M256,93.091c-19.396,0-37.994,3.396-55.246,9.615c12.645,10.1,21.718,24.486,24.984,40.946    c9.657-2.603,19.796-4.015,30.262-4.015c64.163,0,116.364,52.201,116.364,116.364S320.163,372.364,256,372.364    S139.636,320.163,139.636,256c0-10.466,1.412-20.606,4.015-30.262c-16.46-3.266-30.846-12.339-40.946-24.984    c-6.219,17.253-9.615,35.852-9.615,55.246c0,89.972,72.937,162.909,162.909,162.909S418.909,345.972,418.909,256    S345.972,93.091,256,93.091z" fill="#FFFFFF"/>
	</g>
</g>
<g>
	<g>
		<circle cx="157.262" cy="157.262" r="23.273" fill="#FFFFFF"/>
	</g>
</g>
<g>
	<g>
		<circle cx="157.262" cy="157.262" r="23.273" fill="#FFFFFF"/>
	</g>
</g>
<g>
	<g>
		<path d="M256,0C114.842,0,0,114.842,0,256c0,45.776,12.088,88.776,33.223,125.997c2.526-3.806,5.461-7.419,8.814-10.771    c8.187-8.186,18.05-14.085,28.815-17.385C55.346,324.619,46.545,291.32,46.545,256c0-56.173,22.232-107.248,58.354-144.901    c2.023-2.109,4.09-4.175,6.198-6.198C148.75,68.779,199.826,46.545,256,46.545c115.493,0,209.455,93.961,209.455,209.455    S371.493,465.455,256,465.455c-35.339,0-68.655-8.81-97.887-24.329c-3.23,10.56-9.002,20.502-17.338,28.84    c-3.325,3.325-6.929,6.271-10.755,8.822C167.236,499.915,210.232,512,256,512c141.158,0,256-114.842,256-256S397.158,0,256,0z" fill="#FFFFFF"/>
	</g>
</g>
<g>
	<g>
		<path d="M107.861,404.139c-4.544-4.544-10.501-6.817-16.457-6.817c-5.956,0-11.913,2.271-16.457,6.817    c-9.089,9.089-9.089,23.824,0,32.912c4.544,4.544,10.501,6.817,16.457,6.817c5.956,0,11.913-2.273,16.457-6.817    C116.95,427.962,116.95,413.227,107.861,404.139z" fill="#FFFFFF"/>
	</g>
</g>
<g>
	<g>
		<path d="M256,186.182c-38.56,0-69.818,31.26-69.818,69.818c0,38.558,31.258,69.818,69.818,69.818    c38.561,0,69.818-31.26,69.818-69.818C325.818,217.442,294.561,186.182,256,186.182z M256,279.273    c-12.833,0-23.273-10.44-23.273-23.273s10.44-23.273,23.273-23.273s23.273,10.44,23.273,23.273S268.833,279.273,256,279.273z" fill="#FFFFFF"/>
	</g>
</g>
<g>
</g>
<g>
</g>
<g>
</g>
<g>
</g>
<g>
</g>
<g>
</g>
<g>
</g>
<g>
</g>
<g>
</g>
<g>
</g>
<g>
</g>
<g>
</g>
<g>
</g>
<g>
</g>
<g>
</g>
</svg>
